<svg xmlns="http://www.w3.org/2000/svg" xmlns:xlink="http://www.w3.org/1999/xlink" width="1000" zoomAndPan="magnify" viewBox="0 0 750 374.999991" height="500" preserveAspectRatio="xMidYMid meet" version="1.0"><defs><g/><clipPath id="a51c98d788"><path d="M 121 0.359375 L 738.878906 0.359375 L 738.878906 133.078125 L 121 133.078125 Z M 121 0.359375 " clip-rule="nonzero"/></clipPath><clipPath id="8d609b849a"><rect x="0" width="618" y="0" height="134"/></clipPath><clipPath id="d559907203"><path d="M 0.96875 12.992188 L 104.632812 12.992188 L 104.632812 116.65625 L 0.96875 116.65625 Z M 0.96875 12.992188 " clip-rule="nonzero"/></clipPath><clipPath id="c3a508fb49"><path d="M 22 91 L 30 91 L 30 98 L 22 98 Z M 22 91 " clip-rule="nonzero"/></clipPath><clipPath id="c5fdc921ad"><path d="M 72.953125 22.367188 L 91.566406 87.726562 L 26.207031 106.335938 L 7.59375 40.976562 Z M 72.953125 22.367188 " clip-rule="nonzero"/></clipPath><clipPath id="3fab7b96f4"><path d="M 72.953125 22.367188 L 91.566406 87.726562 L 26.207031 106.335938 L 7.59375 40.976562 Z M 72.953125 22.367188 " clip-rule="nonzero"/></clipPath><clipPath id="c47a854a7c"><path d="M 23 25 L 65 25 L 65 96 L 23 96 Z M 23 25 " clip-rule="nonzero"/></clipPath><clipPath id="3820e2a160"><path d="M 72.953125 22.367188 L 91.566406 87.726562 L 26.207031 106.335938 L 7.59375 40.976562 Z M 72.953125 22.367188 " clip-rule="nonzero"/></clipPath><clipPath id="d783e494dd"><path d="M 72.953125 22.367188 L 91.566406 87.726562 L 26.207031 106.335938 L 7.59375 40.976562 Z M 72.953125 22.367188 " clip-rule="nonzero"/></clipPath><clipPath id="0e338e526b"><path d="M 33 97 L 41 97 L 41 105 L 33 105 Z M 33 97 " clip-rule="nonzero"/></clipPath><clipPath id="193653157a"><path d="M 72.953125 22.367188 L 91.566406 87.726562 L 26.207031 106.335938 L 7.59375 40.976562 Z M 72.953125 22.367188 " clip-rule="nonzero"/></clipPath><clipPath id="dfa7da9968"><path d="M 72.953125 22.367188 L 91.566406 87.726562 L 26.207031 106.335938 L 7.59375 40.976562 Z M 72.953125 22.367188 " clip-rule="nonzero"/></clipPath><clipPath id="adab2768b0"><path d="M 34 31 L 76 31 L 76 102 L 34 102 Z M 34 31 " clip-rule="nonzero"/></clipPath><clipPath id="71c254cc0b"><path d="M 72.953125 22.367188 L 91.566406 87.726562 L 26.207031 106.335938 L 7.59375 40.976562 Z M 72.953125 22.367188 " clip-rule="nonzero"/></clipPath><clipPath id="007585e26b"><path d="M 72.953125 22.367188 L 91.566406 87.726562 L 26.207031 106.335938 L 7.59375 40.976562 Z M 72.953125 22.367188 " clip-rule="nonzero"/></clipPath><clipPath id="9984d93c79"><rect x="0" width="739" y="0" height="134"/></clipPath></defs><g transform="matrix(1, 0, 0, 1, 2, 105)"><g clip-path="url(#9984d93c79)"><g clip-path="url(#a51c98d788)"><g transform="matrix(1, 0, 0, 1, 121, 0)"><g clip-path="url(#8d609b849a)"><g fill="#ffffff" fill-opacity="1"><g transform="translate(8.166205, 101.565978)"><g><path d="M 12.515625 -77.875 L 33.09375 -77.875 C 39.320312 -77.875 43.296875 -75.863281 45.015625 -71.84375 C 46.734375 -67.820312 46.71875 -61.945312 44.96875 -54.21875 C 43.15625 -46.476562 40.613281 -40.644531 37.34375 -36.71875 C 34.082031 -32.789062 29.398438 -30.828125 23.296875 -30.828125 L 16.953125 -30.828125 L 9.890625 0 L -5.4375 0 Z M 21.125 -44.875 C 23 -44.875 24.445312 -45.21875 25.46875 -45.90625 C 26.5 -46.601562 27.300781 -47.601562 27.875 -48.90625 C 28.445312 -50.207031 29.035156 -52.066406 29.640625 -54.484375 C 30.367188 -57.742188 30.535156 -60.097656 30.140625 -61.546875 C 29.753906 -63.003906 28.472656 -63.734375 26.296875 -63.734375 L 24.578125 -63.734375 L 20.21875 -44.875 Z M 21.125 -44.875 "/></g></g></g><g fill="#ffffff" fill-opacity="1"><g transform="translate(50.947741, 101.565978)"><g><path d="M 12.515625 -77.875 L 36.453125 -77.875 C 40.253906 -77.875 43 -77.007812 44.6875 -75.28125 C 46.382812 -73.5625 47.234375 -71.144531 47.234375 -68.03125 C 47.234375 -64.925781 46.691406 -60.953125 45.609375 -56.109375 C 44.578125 -51.703125 43.195312 -48.257812 41.46875 -45.78125 C 39.75 -43.300781 37.347656 -41.578125 34.265625 -40.609375 C 36.503906 -40.128906 37.941406 -38.953125 38.578125 -37.078125 C 39.210938 -35.203125 39.164062 -32.664062 38.4375 -29.46875 L 31.453125 0 L 16.234375 0 L 23.21875 -30.453125 C 23.757812 -32.628906 23.664062 -34.019531 22.9375 -34.625 C 22.207031 -35.226562 20.726562 -35.53125 18.5 -35.53125 L 10.34375 0 L -5.4375 0 Z M 25.484375 -49.046875 C 27.648438 -49.046875 29.28125 -51.398438 30.375 -56.109375 C 30.851562 -58.171875 31.109375 -59.710938 31.140625 -60.734375 C 31.171875 -61.765625 30.988281 -62.472656 30.59375 -62.859375 C 30.207031 -63.253906 29.5625 -63.453125 28.65625 -63.453125 L 25.03125 -63.453125 L 21.765625 -49.046875 Z M 25.484375 -49.046875 "/></g></g></g><g fill="#ffffff" fill-opacity="1"><g transform="translate(94.182465, 101.565978)"><g><path d="M -5.4375 0 L 12.515625 -77.875 L 43.703125 -77.875 L 40.25 -62.828125 L 24.9375 -62.828125 L 21.390625 -47.6875 L 36.078125 -47.6875 L 32.734375 -33 L 18.046875 -33 L 13.875 -15.140625 L 30.1875 -15.140625 L 26.75 0 Z M -5.4375 0 "/></g></g></g><g fill="#ffffff" fill-opacity="1"><g transform="translate(131.525687, 101.565978)"><g><path d="M -5.4375 0 L 12.515625 -77.875 L 36.265625 -77.875 L 31.828125 -30.375 L 49.3125 -77.875 L 73.25 -77.875 L 55.296875 0 L 41.078125 0 L 54.03125 -56.109375 L 32.09375 0 L 18.140625 0 L 21.578125 -56.109375 L 8.609375 0 Z M -5.4375 0 "/></g></g></g><g fill="#ffffff" fill-opacity="1"><g transform="translate(199.142265, 101.565978)"><g><path d="M -6.15625 0 L 11.78125 -77.875 L 26.84375 -77.875 L 8.890625 0 Z M -6.15625 0 "/></g></g></g><g fill="#ffffff" fill-opacity="1"><g transform="translate(219.717299, 101.565978)"><g><path d="M 12.515625 0.71875 C 6.109375 0.71875 1.773438 -1.09375 -0.484375 -4.71875 C -2.753906 -8.34375 -3.078125 -13.71875 -1.453125 -20.84375 L 11.703125 -77.875 L 26.84375 -77.875 L 13.78125 -21.484375 C 13.238281 -19.003906 13.039062 -17.066406 13.1875 -15.671875 C 13.34375 -14.285156 14.207031 -13.59375 15.78125 -13.59375 C 17.351562 -13.59375 18.546875 -14.269531 19.359375 -15.625 C 20.171875 -16.988281 20.847656 -18.941406 21.390625 -21.484375 L 34.453125 -77.875 L 49.59375 -77.875 L 36.453125 -20.84375 C 34.816406 -13.71875 32.019531 -8.34375 28.0625 -4.71875 C 24.101562 -1.09375 18.921875 0.71875 12.515625 0.71875 Z M 12.515625 0.71875 "/></g></g></g><g fill="#ffffff" fill-opacity="1"><g transform="translate(262.680121, 101.565978)"><g><path d="M -5.4375 0 L 12.515625 -77.875 L 36.265625 -77.875 L 31.828125 -30.375 L 49.3125 -77.875 L 73.25 -77.875 L 55.296875 0 L 41.078125 0 L 54.03125 -56.109375 L 32.09375 0 L 18.140625 0 L 21.578125 -56.109375 L 8.609375 0 Z M -5.4375 0 "/></g></g></g><g fill="#ffffff" fill-opacity="1"><g transform="translate(330.2967, 101.565978)"><g/></g></g><g fill="#ffffff" fill-opacity="1"><g transform="translate(351.506181, 101.565978)"><g><path d="M 12.875 0.71875 C 5.800781 0.71875 1.101562 -1.03125 -1.21875 -4.53125 C -3.550781 -8.039062 -3.804688 -13.691406 -1.984375 -21.484375 L -0.265625 -29.09375 L 15.046875 -29.09375 L 12.78125 -19.40625 C 11.875 -15.53125 12.660156 -13.59375 15.140625 -13.59375 C 16.535156 -13.59375 17.609375 -14 18.359375 -14.8125 C 19.117188 -15.632812 19.707031 -17.015625 20.125 -18.953125 C 20.726562 -21.484375 20.910156 -23.578125 20.671875 -25.234375 C 20.429688 -26.898438 19.976562 -28.289062 19.3125 -29.40625 C 18.644531 -30.53125 17.375 -32.269531 15.5 -34.625 L 10.34375 -41.34375 C 6.351562 -46.414062 5.050781 -52.035156 6.4375 -58.203125 C 7.945312 -64.847656 10.632812 -69.90625 14.5 -73.375 C 18.375 -76.851562 23.242188 -78.59375 29.109375 -78.59375 C 36.117188 -78.59375 40.738281 -76.734375 42.96875 -73.015625 C 45.207031 -69.304688 45.390625 -63.492188 43.515625 -55.578125 L 27.65625 -55.578125 L 28.828125 -60.921875 C 29.066406 -61.953125 28.972656 -62.769531 28.546875 -63.375 C 28.128906 -63.976562 27.410156 -64.28125 26.390625 -64.28125 C 25.179688 -64.28125 24.179688 -63.945312 23.390625 -63.28125 C 22.609375 -62.613281 22.09375 -61.707031 21.84375 -60.5625 C 21.238281 -58.019531 22.085938 -55.390625 24.390625 -52.671875 L 31.453125 -43.96875 C 33.085938 -41.914062 34.390625 -39.96875 35.359375 -38.125 C 36.328125 -36.28125 36.945312 -34.101562 37.21875 -31.59375 C 37.488281 -29.082031 37.234375 -26.109375 36.453125 -22.671875 C 34.640625 -14.992188 31.875 -9.175781 28.15625 -5.21875 C 24.4375 -1.257812 19.34375 0.71875 12.875 0.71875 Z M 12.875 0.71875 "/></g></g></g><g fill="#ffffff" fill-opacity="1"><g transform="translate(393.290696, 101.565978)"><g><path d="M -5.4375 0 L 12.515625 -77.875 L 28.015625 -77.875 L 21.578125 -50.046875 L 28.921875 -50.046875 L 35.359375 -77.875 L 50.859375 -77.875 L 32.90625 0 L 17.40625 0 L 25.5625 -35.359375 L 18.21875 -35.359375 L 10.0625 0 Z M -5.4375 0 "/></g></g></g><g fill="#ffffff" fill-opacity="1"><g transform="translate(438.519486, 101.565978)"><g><path d="M 12.96875 0.71875 C 6.675781 0.71875 2.335938 -1.195312 -0.046875 -5.03125 C -2.429688 -8.863281 -2.804688 -14.257812 -1.171875 -21.21875 L 7.34375 -58.296875 C 8.914062 -65.003906 11.722656 -70.0625 15.765625 -73.46875 C 19.816406 -76.882812 24.988281 -78.59375 31.28125 -78.59375 C 37.5625 -78.59375 41.941406 -76.882812 44.421875 -73.46875 C 46.898438 -70.0625 47.351562 -65.003906 45.78125 -58.296875 L 37.265625 -21.21875 C 35.628906 -14.207031 32.738281 -8.796875 28.59375 -4.984375 C 24.457031 -1.179688 19.25 0.71875 12.96875 0.71875 Z M 16.234375 -13.59375 C 17.617188 -13.59375 18.703125 -14.195312 19.484375 -15.40625 C 20.273438 -16.613281 20.910156 -18.304688 21.390625 -20.484375 L 30.1875 -58.5625 C 30.550781 -60.257812 30.640625 -61.632812 30.453125 -62.6875 C 30.273438 -63.75 29.492188 -64.28125 28.109375 -64.28125 C 25.503906 -64.28125 23.75 -62.3125 22.84375 -58.375 L 14.0625 -20.390625 C 13.507812 -18.160156 13.367188 -16.46875 13.640625 -15.3125 C 13.921875 -14.164062 14.785156 -13.59375 16.234375 -13.59375 Z M 16.234375 -13.59375 "/></g></g></g><g fill="#ffffff" fill-opacity="1"><g transform="translate(482.569997, 101.565978)"><g><path d="M 12.515625 0.71875 C 6.828125 0.71875 2.6875 -1.0625 0.09375 -4.625 C -2.5 -8.1875 -3.070312 -13.082031 -1.625 -19.3125 L 6.625 -55.203125 C 8.4375 -62.941406 11.335938 -68.773438 15.328125 -72.703125 C 19.316406 -76.628906 24.601562 -78.59375 31.1875 -78.59375 C 36.925781 -78.59375 41.1875 -77.019531 43.96875 -73.875 C 46.75 -70.738281 47.445312 -66.207031 46.0625 -60.28125 L 42.96875 -46.875 L 27.46875 -46.875 L 30.1875 -58.375 C 30.675781 -60.613281 30.753906 -62.15625 30.421875 -63 C 30.085938 -63.851562 29.253906 -64.28125 27.921875 -64.28125 C 26.535156 -64.28125 25.460938 -63.796875 24.703125 -62.828125 C 23.953125 -61.859375 23.363281 -60.4375 22.9375 -58.5625 L 13.875 -19.484375 C 13.445312 -17.429688 13.414062 -15.9375 13.78125 -15 C 14.144531 -14.0625 14.929688 -13.59375 16.140625 -13.59375 C 18.554688 -13.59375 20.21875 -15.554688 21.125 -19.484375 L 24.390625 -33.546875 L 40.078125 -33.546875 L 36.71875 -18.859375 C 33.695312 -5.804688 25.628906 0.71875 12.515625 0.71875 Z M 12.515625 0.71875 "/></g></g></g><g fill="#ffffff" fill-opacity="1"><g transform="translate(525.532818, 101.565978)"><g><path d="M -5.4375 0 L 12.515625 -77.875 L 27.921875 -77.875 L 20.765625 -46.6875 L 35.171875 -77.875 L 50.859375 -77.875 L 33.90625 -42.25 L 34.71875 0 L 18.59375 0 L 18.765625 -37.71875 L 10.0625 0 Z M -5.4375 0 "/></g></g></g><g fill="#ffffff" fill-opacity="1"><g transform="translate(568.3143, 101.565978)"><g><path d="M 12.875 0.71875 C 5.800781 0.71875 1.101562 -1.03125 -1.21875 -4.53125 C -3.550781 -8.039062 -3.804688 -13.691406 -1.984375 -21.484375 L -0.265625 -29.09375 L 15.046875 -29.09375 L 12.78125 -19.40625 C 11.875 -15.53125 12.660156 -13.59375 15.140625 -13.59375 C 16.535156 -13.59375 17.609375 -14 18.359375 -14.8125 C 19.117188 -15.632812 19.707031 -17.015625 20.125 -18.953125 C 20.726562 -21.484375 20.910156 -23.578125 20.671875 -25.234375 C 20.429688 -26.898438 19.976562 -28.289062 19.3125 -29.40625 C 18.644531 -30.53125 17.375 -32.269531 15.5 -34.625 L 10.34375 -41.34375 C 6.351562 -46.414062 5.050781 -52.035156 6.4375 -58.203125 C 7.945312 -64.847656 10.632812 -69.90625 14.5 -73.375 C 18.375 -76.851562 23.242188 -78.59375 29.109375 -78.59375 C 36.117188 -78.59375 40.738281 -76.734375 42.96875 -73.015625 C 45.207031 -69.304688 45.390625 -63.492188 43.515625 -55.578125 L 27.65625 -55.578125 L 28.828125 -60.921875 C 29.066406 -61.953125 28.972656 -62.769531 28.546875 -63.375 C 28.128906 -63.976562 27.410156 -64.28125 26.390625 -64.28125 C 25.179688 -64.28125 24.179688 -63.945312 23.390625 -63.28125 C 22.609375 -62.613281 22.09375 -61.707031 21.84375 -60.5625 C 21.238281 -58.019531 22.085938 -55.390625 24.390625 -52.671875 L 31.453125 -43.96875 C 33.085938 -41.914062 34.390625 -39.96875 35.359375 -38.125 C 36.328125 -36.28125 36.945312 -34.101562 37.21875 -31.59375 C 37.488281 -29.082031 37.234375 -26.109375 36.453125 -22.671875 C 34.640625 -14.992188 31.875 -9.175781 28.15625 -5.21875 C 24.4375 -1.257812 19.34375 0.71875 12.875 0.71875 Z M 12.875 0.71875 "/></g></g></g></g></g></g><g clip-path="url(#d559907203)"><path fill="#ffffff" d="M 104.632812 64.824219 C 104.632812 66.519531 104.550781 68.214844 104.382812 69.902344 C 104.21875 71.59375 103.96875 73.269531 103.636719 74.933594 C 103.304688 76.601562 102.894531 78.246094 102.402344 79.871094 C 101.910156 81.492188 101.339844 83.089844 100.6875 84.660156 C 100.039062 86.226562 99.3125 87.761719 98.511719 89.257812 C 97.714844 90.753906 96.839844 92.207031 95.898438 93.621094 C 94.957031 95.03125 93.945312 96.394531 92.867188 97.707031 C 91.792969 99.019531 90.652344 100.273438 89.453125 101.472656 C 88.253906 102.675781 86.996094 103.8125 85.683594 104.890625 C 84.371094 105.96875 83.007812 106.976562 81.597656 107.921875 C 80.1875 108.863281 78.734375 109.734375 77.234375 110.535156 C 75.738281 111.335938 74.207031 112.058594 72.636719 112.710938 C 71.070312 113.359375 69.472656 113.929688 67.847656 114.421875 C 66.222656 114.917969 64.578125 115.328125 62.914062 115.660156 C 61.25 115.992188 59.570312 116.238281 57.882812 116.40625 C 56.191406 116.570312 54.5 116.65625 52.800781 116.65625 C 51.105469 116.65625 49.410156 116.570312 47.722656 116.40625 C 46.03125 116.238281 44.355469 115.992188 42.691406 115.660156 C 41.023438 115.328125 39.378906 114.917969 37.757812 114.421875 C 36.132812 113.929688 34.535156 113.359375 32.96875 112.710938 C 31.398438 112.058594 29.867188 111.335938 28.367188 110.535156 C 26.871094 109.734375 25.417969 108.863281 24.003906 107.921875 C 22.59375 106.976562 21.234375 105.96875 19.921875 104.890625 C 18.609375 103.8125 17.351562 102.675781 16.152344 101.472656 C 14.949219 100.273438 13.8125 99.019531 12.734375 97.707031 C 11.660156 96.394531 10.648438 95.03125 9.707031 93.621094 C 8.761719 92.207031 7.890625 90.753906 7.089844 89.257812 C 6.289062 87.761719 5.566406 86.226562 4.914062 84.660156 C 4.265625 83.089844 3.695312 81.492188 3.203125 79.871094 C 2.710938 78.246094 2.296875 76.601562 1.964844 74.933594 C 1.636719 73.269531 1.386719 71.59375 1.21875 69.902344 C 1.054688 68.214844 0.96875 66.519531 0.96875 64.824219 C 0.96875 63.125 1.054688 61.433594 1.21875 59.742188 C 1.386719 58.054688 1.636719 56.375 1.964844 54.710938 C 2.296875 53.046875 2.710938 51.402344 3.203125 49.777344 C 3.695312 48.152344 4.265625 46.558594 4.914062 44.988281 C 5.566406 43.421875 6.289062 41.886719 7.089844 40.390625 C 7.890625 38.894531 8.761719 37.4375 9.707031 36.027344 C 10.648438 34.617188 11.660156 33.253906 12.734375 31.941406 C 13.8125 30.628906 14.949219 29.375 16.152344 28.171875 C 17.351562 26.972656 18.609375 25.835938 19.921875 24.757812 C 21.234375 23.679688 22.59375 22.671875 24.003906 21.726562 C 25.417969 20.785156 26.871094 19.914062 28.367188 19.113281 C 29.867188 18.3125 31.398438 17.585938 32.96875 16.9375 C 34.535156 16.289062 36.132812 15.714844 37.757812 15.222656 C 39.378906 14.730469 41.023438 14.320312 42.691406 13.988281 C 44.355469 13.65625 46.03125 13.40625 47.722656 13.242188 C 49.410156 13.074219 51.105469 12.992188 52.800781 12.992188 C 54.5 12.992188 56.191406 13.074219 57.882812 13.242188 C 59.570312 13.40625 61.25 13.65625 62.914062 13.988281 C 64.578125 14.320312 66.222656 14.730469 67.847656 15.222656 C 69.472656 15.714844 71.070312 16.289062 72.636719 16.9375 C 74.207031 17.585938 75.738281 18.3125 77.234375 19.113281 C 78.734375 19.914062 80.1875 20.785156 81.597656 21.726562 C 83.007812 22.671875 84.371094 23.679688 85.683594 24.757812 C 86.996094 25.835938 88.253906 26.972656 89.453125 28.171875 C 90.652344 29.375 91.792969 30.628906 92.867188 31.941406 C 93.945312 33.253906 94.957031 34.617188 95.898438 36.027344 C 96.839844 37.4375 97.714844 38.894531 98.511719 40.390625 C 99.3125 41.886719 100.039062 43.421875 100.6875 44.988281 C 101.339844 46.558594 101.910156 48.152344 102.402344 49.777344 C 102.894531 51.402344 103.304688 53.046875 103.636719 54.710938 C 103.96875 56.375 104.21875 58.054688 104.382812 59.742188 C 104.550781 61.433594 104.632812 63.125 104.632812 64.824219 Z M 104.632812 64.824219 " fill-opacity="1" fill-rule="nonzero"/></g><g clip-path="url(#c3a508fb49)"><g clip-path="url(#c5fdc921ad)"><g clip-path="url(#3fab7b96f4)"><path fill="#ff6100" d="M 23.273438 92.734375 C 23.363281 93.390625 23.722656 93.972656 24.257812 94.351562 L 23.84375 95.097656 L 23.453125 94.878906 L 22.8125 96.027344 L 23.203125 96.246094 L 22.933594 96.730469 L 24.914062 97.832031 L 25.183594 97.347656 L 25.574219 97.566406 L 26.210938 96.417969 L 25.820312 96.199219 L 26.238281 95.453125 C 26.839844 95.710938 27.523438 95.707031 28.132812 95.441406 L 29.101562 95.015625 L 23.125 91.683594 L 23.273438 92.734375 " fill-opacity="1" fill-rule="nonzero"/></g></g></g><g clip-path="url(#c47a854a7c)"><g clip-path="url(#3820e2a160)"><g clip-path="url(#d783e494dd)"><path fill="#ff6100" d="M 29.796875 93.761719 L 29.472656 93.578125 L 29.914062 92.78125 L 30.242188 92.964844 L 30.832031 91.90625 C 31.058594 91.5 30.914062 90.988281 30.503906 90.761719 L 30.53125 90.773438 L 30.496094 88.703125 L 30.113281 88.492188 L 44.179688 63.226562 L 44.386719 63.339844 C 44.917969 63.636719 45.59375 63.445312 45.890625 62.910156 L 47.375 60.246094 L 47.890625 60.53125 L 61.382812 36.296875 C 61.484375 36.117188 61.417969 35.886719 61.234375 35.789062 C 61.054688 35.6875 60.992188 35.457031 61.089844 35.277344 L 61.746094 34.101562 C 62.226562 33.238281 62.078125 32.191406 61.445312 31.496094 L 61.921875 30.640625 L 62.101562 30.738281 C 62.507812 30.964844 63.019531 30.820312 63.246094 30.414062 L 63.5625 29.84375 L 63.839844 30 L 64.8125 28.25 L 64.535156 28.09375 L 64.777344 27.664062 C 65 27.257812 64.855469 26.746094 64.449219 26.519531 L 62.828125 25.617188 C 62.421875 25.390625 61.910156 25.539062 61.683594 25.945312 L 61.445312 26.375 L 61.167969 26.21875 L 60.195312 27.96875 L 60.472656 28.125 L 60.15625 28.695312 C 59.929688 29.097656 60.074219 29.609375 60.480469 29.835938 L 60.65625 29.9375 L 60.179688 30.792969 C 59.257812 30.621094 58.289062 31.046875 57.808594 31.910156 L 57.15625 33.085938 C 57.054688 33.265625 56.828125 33.332031 56.644531 33.230469 C 56.464844 33.128906 56.234375 33.195312 56.132812 33.375 L 42.644531 57.609375 L 43.050781 57.835938 L 41.566406 60.503906 C 41.269531 61.039062 41.460938 61.710938 41.996094 62.007812 L 42.199219 62.125 L 28.132812 87.390625 L 27.75 87.175781 L 25.976562 88.238281 L 26 88.25 C 25.59375 88.023438 25.078125 88.171875 24.855469 88.578125 L 24.265625 89.636719 L 24.59375 89.816406 L 24.148438 90.617188 L 23.820312 90.433594 L 23.097656 91.730469 L 29.078125 95.058594 L 29.796875 93.761719 " fill-opacity="1" fill-rule="nonzero"/></g></g></g><g clip-path="url(#0e338e526b)"><g clip-path="url(#193653157a)"><g clip-path="url(#dfa7da9968)"><path fill="#ff6100" d="M 34.207031 97.914062 L 34.359375 98.964844 C 34.449219 99.621094 34.808594 100.203125 35.34375 100.582031 L 34.929688 101.328125 L 34.539062 101.109375 L 33.898438 102.257812 L 34.289062 102.476562 L 34.019531 102.960938 L 36 104.0625 L 36.269531 103.578125 L 36.660156 103.796875 L 37.296875 102.644531 L 36.90625 102.429688 L 37.324219 101.683594 C 37.925781 101.9375 38.609375 101.9375 39.21875 101.667969 L 40.1875 101.242188 L 34.207031 97.914062 " fill-opacity="1" fill-rule="nonzero"/></g></g></g><g clip-path="url(#adab2768b0)"><g clip-path="url(#71c254cc0b)"><g clip-path="url(#007585e26b)"><path fill="#ff6100" d="M 40.910156 99.945312 L 40.582031 99.765625 L 41.027344 98.964844 L 41.351562 99.148438 L 41.941406 98.089844 C 42.167969 97.683594 42.023438 97.171875 41.617188 96.945312 L 41.640625 96.960938 L 41.609375 94.890625 L 41.222656 94.675781 L 55.289062 69.410156 L 55.496094 69.527344 C 56.03125 69.824219 56.703125 69.632812 57 69.097656 L 58.484375 66.429688 L 59 66.71875 L 72.492188 42.484375 C 72.59375 42.300781 72.527344 42.074219 72.347656 41.972656 C 72.164062 41.871094 72.101562 41.644531 72.203125 41.460938 L 72.855469 40.289062 C 73.335938 39.421875 73.1875 38.378906 72.558594 37.683594 L 73.035156 36.824219 L 73.210938 36.925781 C 73.617188 37.152344 74.128906 37.003906 74.355469 36.597656 L 74.671875 36.03125 L 74.949219 36.183594 L 75.925781 34.433594 L 75.648438 34.277344 L 75.886719 33.847656 C 76.113281 33.445312 75.964844 32.933594 75.558594 32.707031 L 73.9375 31.804688 C 73.535156 31.578125 73.023438 31.722656 72.796875 32.128906 L 72.554688 32.558594 L 72.277344 32.402344 L 71.304688 34.15625 L 71.582031 34.308594 L 71.265625 34.878906 C 71.039062 35.285156 71.183594 35.796875 71.589844 36.023438 L 71.769531 36.121094 L 71.292969 36.976562 C 70.367188 36.808594 69.402344 37.230469 68.917969 38.097656 L 68.265625 39.269531 C 68.164062 39.453125 67.9375 39.515625 67.753906 39.417969 C 67.574219 39.316406 67.347656 39.378906 67.246094 39.5625 L 53.753906 63.796875 L 54.160156 64.023438 L 52.675781 66.691406 C 52.378906 67.222656 52.570312 67.898438 53.105469 68.195312 L 53.3125 68.308594 L 39.246094 93.574219 L 38.859375 93.359375 L 37.085938 94.421875 L 37.109375 94.4375 C 36.703125 94.210938 36.191406 94.355469 35.964844 94.761719 L 35.375 95.820312 L 35.703125 96.003906 L 35.257812 96.800781 L 34.929688 96.617188 L 34.207031 97.914062 L 40.1875 101.242188 L 40.910156 99.945312 " fill-opacity="1" fill-rule="nonzero"/></g></g></g></g></g></svg>