<svg xmlns="http://www.w3.org/2000/svg" xmlns:xlink="http://www.w3.org/1999/xlink" width="500" zoomAndPan="magnify" viewBox="0 0 375 374.999991" height="500" preserveAspectRatio="xMidYMid meet" version="1.0"><defs><g/><clipPath id="1f850580e0"><path d="M 22.277344 133.097656 L 359.027344 133.097656 L 359.027344 190.847656 L 22.277344 190.847656 Z M 22.277344 133.097656 " clip-rule="nonzero"/></clipPath></defs><g clip-path="url(#1f850580e0)"><path fill="#ffffff" d="M 38.523438 164.5625 C 40.933594 162.886719 42.191406 161.3125 42.191406 159.636719 C 42.191406 157.644531 40.933594 155.96875 39.359375 154.710938 C 38.523438 153.871094 35.273438 152.71875 37.371094 149.46875 C 55.1875 153.976562 111.785156 133.222656 161.046875 133.222656 C 191.96875 133.222656 221.628906 138.464844 251.398438 150.726562 C 270.160156 150.726562 342.585938 158.484375 359.25 186.574219 C 358.410156 187.410156 357.257812 189.402344 356.839844 190.660156 L 352.75 190.660156 C 353.171875 189.402344 354.007812 187.832031 354.742188 186.574219 C 344.15625 170.328125 268.480469 157.226562 247.730469 157.226562 C 217.960938 143.808594 187.878906 139.722656 161.046875 139.722656 C 108.957031 139.722656 72.378906 156.804688 43.867188 154.816406 C 43.867188 156.804688 47.117188 158.902344 47.117188 162.152344 C 47.117188 164.980469 45.859375 167.8125 43.867188 170.328125 C 37.371094 170.222656 27.515625 176.40625 27.515625 190.554688 L 22.277344 190.554688 C 22.277344 183.636719 22.277344 172.320312 38.523438 164.5625 Z M 38.523438 164.5625 " fill-opacity="1" fill-rule="nonzero"/></g><g fill="#ffffff" fill-opacity="1"><g transform="translate(59.078784, 220.290307)"><g><path d="M 29.71875 0.875 C 27.382812 0.875 25.476562 0.207031 24 -1.125 C 22.519531 -2.457031 21.65625 -4.269531 21.40625 -6.5625 L 21.015625 -10.1875 C 20.910156 -10.988281 20.675781 -11.679688 20.3125 -12.265625 C 19.945312 -12.847656 19.34375 -13.140625 18.5 -13.140625 L 16.578125 -13.140625 L 14.5 0 L 0.28125 0 L 6.515625 -39.40625 L 26.109375 -39.40625 C 31.035156 -39.40625 34.8125 -38.4375 37.4375 -36.5 C 40.0625 -34.570312 41.375 -31.785156 41.375 -28.140625 C 41.375 -25.359375 40.617188 -22.875 39.109375 -20.6875 C 37.597656 -18.5 35.398438 -16.820312 32.515625 -15.65625 L 32.515625 -15.59375 C 33.242188 -15.300781 33.78125 -14.804688 34.125 -14.109375 C 34.46875 -13.421875 34.695312 -12.550781 34.8125 -11.5 L 35.03125 -9.25 C 35.101562 -8.738281 35.273438 -8.304688 35.546875 -7.953125 C 35.816406 -7.609375 36.191406 -7.4375 36.671875 -7.4375 C 37.035156 -7.4375 37.398438 -7.488281 37.765625 -7.59375 C 38.128906 -7.707031 38.457031 -7.835938 38.75 -7.984375 L 39.46875 -1.8125 C 38.226562 -1.007812 36.726562 -0.363281 34.96875 0.125 C 33.21875 0.625 31.46875 0.875 29.71875 0.875 Z M 17.953125 -21.890625 L 22.171875 -21.890625 C 23.734375 -21.890625 24.929688 -22.269531 25.765625 -23.03125 C 26.609375 -23.800781 27.03125 -24.914062 27.03125 -26.375 C 27.03125 -28.5 25.8125 -29.5625 23.375 -29.5625 L 19.15625 -29.5625 Z M 17.953125 -21.890625 "/></g></g></g><g fill="#ffffff" fill-opacity="1"><g transform="translate(100.944588, 220.290307)"><g><path d="M 21.234375 1.3125 C 17.253906 1.3125 13.820312 0.609375 10.9375 -0.796875 C 8.0625 -2.203125 5.835938 -4.21875 4.265625 -6.84375 C 2.703125 -9.46875 1.921875 -12.625 1.921875 -16.3125 C 1.921875 -19.707031 2.472656 -22.878906 3.578125 -25.828125 C 4.691406 -28.785156 6.28125 -31.378906 8.34375 -33.609375 C 10.40625 -35.835938 12.84375 -37.578125 15.65625 -38.828125 C 18.46875 -40.085938 21.566406 -40.71875 24.953125 -40.71875 C 28.785156 -40.71875 32.035156 -40.070312 34.703125 -38.78125 C 37.367188 -37.488281 39.382812 -35.671875 40.75 -33.328125 C 42.113281 -30.992188 42.722656 -28.238281 42.578125 -25.0625 L 29.28125 -22.21875 C 29.25 -24.1875 28.75 -25.753906 27.78125 -26.921875 C 26.8125 -28.097656 25.523438 -28.6875 23.921875 -28.6875 C 22.242188 -28.6875 20.835938 -28.132812 19.703125 -27.03125 C 18.566406 -25.9375 17.707031 -24.539062 17.125 -22.84375 C 16.539062 -21.15625 16.25 -19.429688 16.25 -17.671875 C 16.25 -15.523438 16.78125 -13.835938 17.84375 -12.609375 C 18.90625 -11.390625 20.398438 -10.78125 22.328125 -10.78125 C 24.296875 -10.78125 26.082031 -11.445312 27.6875 -12.78125 C 29.300781 -14.113281 30.453125 -15.890625 31.140625 -18.109375 L 44.109375 -16.75 C 43.234375 -13.132812 41.703125 -9.96875 39.515625 -7.25 C 37.328125 -4.53125 34.671875 -2.421875 31.546875 -0.921875 C 28.429688 0.566406 24.992188 1.3125 21.234375 1.3125 Z M 21.234375 1.3125 "/></g></g></g><g fill="#ffffff" fill-opacity="1"><g transform="translate(145.327806, 220.290307)"><g/></g></g><g fill="#ffffff" fill-opacity="1"><g transform="translate(154.193509, 220.290307)"><g><path d="M -2.25 0 L 16.640625 -39.40625 L 34.15625 -39.40625 L 40.5625 0 L 25.828125 0 L 25.34375 -6.125 L 14.453125 -6.125 L 11.71875 0 Z M 17.78125 -15.328125 L 24.90625 -15.328125 L 23.75 -28.84375 L 23.640625 -28.84375 Z M 17.78125 -15.328125 "/></g></g></g><g fill="#ffffff" fill-opacity="1"><g transform="translate(196.98966, 220.290307)"><g><path d="M 18.828125 1.3125 C 12.660156 1.3125 8.15625 -0.0703125 5.3125 -2.84375 C 2.46875 -5.613281 1.460938 -9.59375 2.296875 -14.78125 L 6.296875 -39.40625 L 20.53125 -39.40625 L 16.640625 -15.328125 C 16.378906 -13.867188 16.601562 -12.738281 17.3125 -11.9375 C 18.03125 -11.132812 19.175781 -10.734375 20.75 -10.734375 C 22.28125 -10.734375 23.519531 -11.125 24.46875 -11.90625 C 25.414062 -12.6875 26 -13.804688 26.21875 -15.265625 L 30.046875 -39.40625 L 44.28125 -39.40625 L 40.34375 -14.5 C 39.539062 -9.425781 37.273438 -5.519531 33.546875 -2.78125 C 29.828125 -0.0507812 24.921875 1.3125 18.828125 1.3125 Z M 18.828125 1.3125 "/></g></g></g><g fill="#ffffff" fill-opacity="1"><g transform="translate(239.566909, 220.290307)"><g><path d="M 8.8125 0 L 13.140625 -27.375 L 3.171875 -27.375 L 5.09375 -39.40625 L 39.25 -39.40625 L 37.328125 -27.375 L 27.375 -27.375 L 23.046875 0 Z M 8.8125 0 "/></g></g></g><g fill="#ffffff" fill-opacity="1"><g transform="translate(275.905331, 220.290307)"><g><path d="M 21.671875 1.3125 C 17.546875 1.3125 13.992188 0.609375 11.015625 -0.796875 C 8.046875 -2.203125 5.769531 -4.179688 4.1875 -6.734375 C 2.601562 -9.285156 1.8125 -12.3125 1.8125 -15.8125 C 1.8125 -19.351562 2.429688 -22.628906 3.671875 -25.640625 C 4.910156 -28.648438 6.640625 -31.285156 8.859375 -33.546875 C 11.085938 -35.816406 13.71875 -37.578125 16.75 -38.828125 C 19.78125 -40.085938 23.082031 -40.71875 26.65625 -40.71875 C 30.78125 -40.71875 34.316406 -40.015625 37.265625 -38.609375 C 40.222656 -37.210938 42.492188 -35.234375 44.078125 -32.671875 C 45.671875 -30.117188 46.46875 -27.09375 46.46875 -23.59375 C 46.46875 -20.09375 45.847656 -16.828125 44.609375 -13.796875 C 43.367188 -10.765625 41.632812 -8.117188 39.40625 -5.859375 C 37.175781 -3.597656 34.554688 -1.835938 31.546875 -0.578125 C 28.535156 0.679688 25.242188 1.3125 21.671875 1.3125 Z M 23.15625 -10.734375 C 25.050781 -10.734375 26.664062 -11.257812 28 -12.3125 C 29.332031 -13.375 30.34375 -14.742188 31.03125 -16.421875 C 31.726562 -18.097656 32.078125 -19.867188 32.078125 -21.734375 C 32.078125 -23.878906 31.472656 -25.570312 30.265625 -26.8125 C 29.066406 -28.0625 27.332031 -28.6875 25.0625 -28.6875 C 23.207031 -28.6875 21.613281 -28.164062 20.28125 -27.125 C 18.945312 -26.082031 17.929688 -24.722656 17.234375 -23.046875 C 16.546875 -21.367188 16.203125 -19.578125 16.203125 -17.671875 C 16.203125 -15.523438 16.800781 -13.832031 18 -12.59375 C 19.207031 -11.351562 20.925781 -10.734375 23.15625 -10.734375 Z M 23.15625 -10.734375 "/></g></g></g></svg>