<svg xmlns="http://www.w3.org/2000/svg" xmlns:xlink="http://www.w3.org/1999/xlink" width="500" zoomAndPan="magnify" viewBox="0 0 375 374.999991" height="500" preserveAspectRatio="xMidYMid meet" version="1.0"><defs><g/><clipPath id="172a1641c4"><rect x="0" width="334" y="0" height="323"/></clipPath></defs><g transform="matrix(1, 0, 0, 1, 34, 19)"><g clip-path="url(#172a1641c4)"><g fill="#000000" fill-opacity="1"><g transform="translate(1.11411, 245.65547)"><g><path d="M 111.03125 -24.65625 C 111.03125 -19.570312 111.90625 -15.859375 113.65625 -13.515625 C 115.40625 -11.171875 118.101562 -9.445312 121.75 -8.34375 L 117.703125 2.5 C 112.941406 1.78125 108.691406 0.0351562 104.953125 -2.734375 C 101.222656 -5.515625 98.601562 -9.765625 97.09375 -15.484375 C 92.726562 -9.691406 87.269531 -5.265625 80.71875 -2.203125 C 74.164062 0.847656 66.757812 2.375 58.5 2.375 C 46.101562 2.375 36.367188 -1.113281 29.296875 -8.09375 C 22.234375 -15.082031 18.703125 -24.414062 18.703125 -36.09375 C 18.703125 -48.800781 23.644531 -58.53125 33.53125 -65.28125 C 43.425781 -72.03125 57.820312 -75.40625 76.71875 -75.40625 L 95.65625 -75.40625 L 95.65625 -87.5625 C 95.65625 -97.332031 92.851562 -104.179688 87.25 -108.109375 C 81.65625 -112.046875 74.015625 -114.015625 64.328125 -114.015625 C 60.117188 -114.015625 55.351562 -113.535156 50.03125 -112.578125 C 44.707031 -111.628906 38.789062 -110.003906 32.28125 -107.703125 L 28 -119.84375 C 35.539062 -122.625 42.390625 -124.570312 48.546875 -125.6875 C 54.703125 -126.800781 60.675781 -127.359375 66.46875 -127.359375 C 81.164062 -127.359375 92.265625 -123.765625 99.765625 -116.578125 C 107.273438 -109.390625 111.03125 -99.878906 111.03125 -88.046875 Z M 61.359375 -9.40625 C 68.179688 -9.40625 74.570312 -11.070312 80.53125 -14.40625 C 86.488281 -17.75 91.53125 -22.398438 95.65625 -28.359375 L 95.65625 -64.09375 L 74.9375 -64.09375 C 60.082031 -64.09375 49.71875 -61.488281 43.84375 -56.28125 C 37.96875 -51.082031 35.03125 -44.195312 35.03125 -35.625 C 35.03125 -26.96875 37.171875 -20.429688 41.453125 -16.015625 C 45.742188 -11.609375 52.378906 -9.40625 61.359375 -9.40625 Z M 61.359375 -9.40625 "/></g></g></g><g fill="#000000" fill-opacity="1"><g transform="translate(144.063523, 245.65547)"><g><path d="M 40.859375 -107.8125 C 45.628906 -114.09375 51.085938 -118.921875 57.234375 -122.296875 C 63.390625 -125.671875 70.203125 -127.359375 77.671875 -127.359375 C 88.953125 -127.359375 98.046875 -124.65625 104.953125 -119.25 C 111.867188 -113.851562 116.894531 -106.289062 120.03125 -96.5625 C 123.164062 -86.832031 124.734375 -75.492188 124.734375 -62.546875 C 124.734375 -49.992188 122.847656 -38.832031 119.078125 -29.0625 C 115.304688 -19.300781 109.765625 -11.617188 102.453125 -6.015625 C 95.148438 -0.421875 86.132812 2.375 75.40625 2.375 C 60.476562 2.375 48.804688 -2.90625 40.390625 -13.46875 L 38.953125 0 L 26.09375 0 L 26.09375 -175.71875 L 40.859375 -177.75 Z M 72.1875 -10.484375 C 83.789062 -10.484375 92.664062 -14.832031 98.8125 -23.53125 C 104.96875 -32.226562 108.046875 -45.3125 108.046875 -62.78125 C 108.046875 -73.90625 106.832031 -83.316406 104.40625 -91.015625 C 101.988281 -98.722656 98.378906 -104.597656 93.578125 -108.640625 C 88.773438 -112.691406 82.757812 -114.71875 75.53125 -114.71875 C 67.75 -114.71875 60.914062 -112.394531 55.03125 -107.75 C 49.15625 -103.101562 44.429688 -98.160156 40.859375 -92.921875 L 40.859375 -28.109375 C 44.429688 -22.796875 48.976562 -18.53125 54.5 -15.3125 C 60.019531 -12.09375 65.914062 -10.484375 72.1875 -10.484375 Z M 72.1875 -10.484375 "/></g></g></g><g fill="#000000" fill-opacity="1"><g transform="translate(259.512166, 121.111303)"><g><path d="M 31.84375 1.921875 L 13.75 -3.671875 L 44.921875 -69.21875 L 8.203125 -69.21875 L 8.203125 -83.578125 L 64.21875 -83.578125 L 64.21875 -70.671875 Z M 31.84375 1.921875 "/></g></g></g></g></g></svg>