<svg xmlns="http://www.w3.org/2000/svg" xmlns:xlink="http://www.w3.org/1999/xlink" width="500" zoomAndPan="magnify" viewBox="0 0 375 374.999991" height="500" preserveAspectRatio="xMidYMid meet" version="1.0"><defs><g/><clipPath id="a3653c0f20"><path d="M 291.402344 138.609375 L 373.902344 138.609375 L 373.902344 221 L 291.402344 221 Z M 291.402344 138.609375 " clip-rule="nonzero"/></clipPath><clipPath id="8cf38a8880"><rect x="0" width="300" y="0" height="114"/></clipPath></defs><g clip-path="url(#a3653c0f20)"><path fill="#ffffff" d="M 373.792969 179.804688 C 373.792969 202.558594 355.347656 221 332.597656 221 C 309.847656 221 291.402344 202.558594 291.402344 179.804688 C 291.402344 157.054688 309.847656 138.613281 332.597656 138.613281 C 355.347656 138.613281 373.792969 157.054688 373.792969 179.804688 " fill-opacity="1" fill-rule="nonzero"/></g><path fill="#000000" d="M 321.070312 184.425781 C 321.027344 192.253906 307.820312 192.5 306.160156 185.421875 L 310.378906 184.3125 C 310.894531 186.40625 313.699219 187.414062 315.507812 186.136719 C 316.824219 185.246094 316.695312 182.910156 315.183594 182.269531 C 314.0625 181.675781 312.550781 181.734375 311.300781 181.742188 L 311.300781 178.4375 C 312.460938 178.417969 313.910156 178.5625 314.941406 177.988281 C 316.1875 177.421875 316.355469 175.347656 315.25 174.574219 C 313.742188 173.394531 311.28125 174.214844 310.949219 176.167969 L 306.726562 175.191406 C 308.035156 170.328125 314.667969 169.007812 318.5 171.648438 C 321.617188 173.609375 321.226562 179.074219 317.390625 179.914062 L 317.390625 179.996094 C 319.449219 180.449219 321.101562 182.28125 321.070312 184.425781 " fill-opacity="1" fill-rule="nonzero"/><path fill="#000000" d="M 334.492188 183.660156 C 334.625 179.667969 328.308594 179.695312 328.457031 183.6875 C 328.347656 187.667969 334.652344 187.730469 334.492188 183.660156 Z M 339.007812 183.554688 C 338.566406 194.726562 320.179688 191.46875 324.53125 180.5625 C 325.273438 178.492188 329.492188 172.789062 330.695312 170.835938 L 336.183594 170.835938 C 336.105469 170.96875 331.445312 177.382812 331.390625 177.519531 C 335.144531 176.402344 339.160156 179.632812 339.007812 183.554688 " fill-opacity="1" fill-rule="nonzero"/><path fill="#000000" d="M 351.835938 180.359375 C 352.109375 172.0625 345.902344 172.117188 346.152344 180.359375 C 345.886719 188.679688 352.128906 188.726562 351.835938 180.359375 Z M 356.488281 180.359375 C 356.9375 194.046875 341.0625 193.996094 341.5 180.359375 C 341.328125 175.644531 343.554688 170.128906 349.019531 170.320312 C 354.484375 170.128906 356.644531 175.667969 356.488281 180.359375 " fill-opacity="1" fill-rule="nonzero"/><path fill="#000000" d="M 365.371094 171.804688 C 364.097656 175.417969 359.097656 173.167969 360.371094 169.746094 C 361.632812 166.195312 366.640625 168.429688 365.371094 171.804688 Z M 366.394531 167.300781 C 361.511719 163.246094 354.722656 169.398438 359.320312 174.285156 C 364.152344 178.457031 371.019531 172.105469 366.394531 167.300781 " fill-opacity="1" fill-rule="nonzero"/><g transform="matrix(1, 0, 0, 1, 0, 130)"><g clip-path="url(#8cf38a8880)"><g fill="#ffffff" fill-opacity="1"><g transform="translate(-2.011245, 79.989137)"><g><path d="M 5.4375 -74.75 L 28.625 -74.75 C 35.632812 -74.75 41.222656 -73.253906 45.390625 -70.265625 C 49.554688 -67.273438 51.640625 -62.425781 51.640625 -55.71875 C 51.640625 -48.226562 48.53125 -42.882812 42.3125 -39.6875 C 52.945312 -37.8125 58.265625 -31.53125 58.265625 -20.84375 C 58.265625 -14.5625 56.085938 -9.515625 51.734375 -5.703125 C 47.390625 -1.898438 41.410156 0 33.796875 0 L 5.4375 0 Z M 22.46875 -45.484375 L 23.828125 -45.484375 C 27.628906 -45.484375 30.46875 -46.144531 32.34375 -47.46875 C 34.21875 -48.800781 35.15625 -50.976562 35.15625 -54 C 35.15625 -59.070312 31.378906 -61.609375 23.828125 -61.609375 L 22.46875 -61.609375 Z M 22.46875 -13.140625 L 27.8125 -13.140625 C 36.15625 -13.140625 40.328125 -15.914062 40.328125 -21.46875 C 40.328125 -24.789062 39.28125 -27.175781 37.1875 -28.625 C 35.101562 -30.082031 31.976562 -30.8125 27.8125 -30.8125 L 22.46875 -30.8125 Z M 22.46875 -13.140625 "/></g></g></g><g fill="#ffffff" fill-opacity="1"><g transform="translate(58.33664, 79.989137)"><g><path d="M 62.890625 -74.75 L 62.890625 -26.546875 C 62.890625 -17.367188 60.410156 -10.421875 55.453125 -5.703125 C 50.492188 -0.992188 43.242188 1.359375 33.703125 1.359375 C 24.160156 1.359375 16.910156 -0.992188 11.953125 -5.703125 C 7.003906 -10.421875 4.53125 -17.367188 4.53125 -26.546875 L 4.53125 -74.75 L 21.5625 -74.75 L 21.5625 -31.53125 C 21.5625 -25.488281 22.507812 -21.289062 24.40625 -18.9375 C 26.3125 -16.582031 29.410156 -15.40625 33.703125 -15.40625 C 37.992188 -15.40625 41.085938 -16.582031 42.984375 -18.9375 C 44.890625 -21.289062 45.84375 -25.488281 45.84375 -31.53125 L 45.84375 -74.75 Z M 62.890625 -74.75 "/></g></g></g><g fill="#ffffff" fill-opacity="1"><g transform="translate(125.752279, 79.989137)"><g><path d="M 48.65625 -74.75 L 48.65625 -59.796875 L 22.46875 -59.796875 L 22.46875 -44.9375 L 46.65625 -44.9375 L 46.65625 -29.984375 L 22.46875 -29.984375 L 22.46875 0 L 5.4375 0 L 5.4375 -74.75 Z M 48.65625 -74.75 "/></g></g></g><g fill="#ffffff" fill-opacity="1"><g transform="translate(177.129534, 79.989137)"><g><path d="M 48.65625 -74.75 L 48.65625 -59.796875 L 22.46875 -59.796875 L 22.46875 -44.9375 L 46.65625 -44.9375 L 46.65625 -29.984375 L 22.46875 -29.984375 L 22.46875 0 L 5.4375 0 L 5.4375 -74.75 Z M 48.65625 -74.75 "/></g></g></g><g fill="#ffffff" fill-opacity="1"><g transform="translate(228.506788, 79.989137)"><g><path d="M -2.71875 -74.75 L 17.765625 -74.75 L 33.34375 -50.828125 L 48.921875 -74.75 L 69.40625 -74.75 L 41.859375 -33.53125 L 41.859375 0 L 24.828125 0 L 24.828125 -33.53125 Z M -2.71875 -74.75 "/></g></g></g></g></g></svg>