<svg xmlns="http://www.w3.org/2000/svg" xmlns:xlink="http://www.w3.org/1999/xlink" width="1500" zoomAndPan="magnify" viewBox="0 0 1125 374.999991" height="500" preserveAspectRatio="xMidYMid meet" version="1.0"><defs><g/><clipPath id="cc9bc9a469"><path d="M 1101.34375 31.105469 L 1117.09375 31.105469 L 1117.09375 46.855469 L 1101.34375 46.855469 Z M 1101.34375 31.105469 " clip-rule="nonzero"/></clipPath><clipPath id="04302cb9a6"><rect x="0" width="963" y="0" height="345"/></clipPath><clipPath id="9212cc69b8"><rect x="0" width="176" y="0" height="97"/></clipPath></defs><g clip-path="url(#cc9bc9a469)"><path fill="#f6f4f0" d="M 1109.222656 46.867188 C 1104.878906 46.867188 1101.34375 43.332031 1101.34375 38.984375 C 1101.34375 34.640625 1104.878906 31.105469 1109.222656 31.105469 C 1113.566406 31.105469 1117.101562 34.640625 1117.101562 38.984375 C 1117.101562 43.332031 1113.570312 46.867188 1109.222656 46.867188 Z M 1109.222656 31.816406 C 1105.269531 31.816406 1102.054688 35.03125 1102.054688 38.984375 C 1102.054688 42.9375 1105.269531 46.15625 1109.222656 46.15625 C 1113.175781 46.15625 1116.390625 42.9375 1116.390625 38.984375 C 1116.390625 35.03125 1113.175781 31.816406 1109.222656 31.816406 Z M 1109.222656 31.816406 " fill-opacity="1" fill-rule="nonzero"/></g><g transform="matrix(1, 0, 0, 1, 0, 0)"><g clip-path="url(#04302cb9a6)"><g fill="#ffffff" fill-opacity="1"><g transform="translate(0.0000135, 266.565858)"><g><path d="M 18.296875 0 L 18.296875 -256.1875 L 164.6875 -256.1875 L 164.6875 -219.59375 L 54.890625 -219.59375 L 54.890625 -146.390625 L 164.6875 -146.390625 L 164.6875 -109.796875 L 54.890625 -109.796875 L 54.890625 -36.59375 L 164.6875 -36.59375 L 164.6875 0 Z M 164.6875 -36.59375 L 164.6875 -109.796875 L 201.296875 -109.796875 L 201.296875 -36.59375 Z M 164.6875 -146.390625 L 164.6875 -219.59375 L 201.296875 -219.59375 L 201.296875 -146.390625 Z M 164.6875 -146.390625 "/></g></g></g><g fill="#ffffff" fill-opacity="1"><g transform="translate(219.575053, 266.565858)"><g><path d="M 164.6875 -36.59375 L 164.6875 0 L 54.890625 0 L 54.890625 -36.59375 Z M 18.296875 -36.59375 L 18.296875 -183 L 54.890625 -183 L 54.890625 -36.59375 Z M 164.6875 -36.59375 L 164.6875 -183 L 201.296875 -183 L 201.296875 -36.59375 Z M 164.6875 -36.59375 "/></g></g></g><g fill="#ffffff" fill-opacity="1"><g transform="translate(439.150093, 266.565858)"><g><path d="M 18.296875 0 L 18.296875 -219.59375 L 54.890625 -219.59375 L 54.890625 -183 L 128.09375 -183 L 128.09375 -146.390625 L 54.890625 -146.390625 L 54.890625 0 Z M 54.890625 -219.59375 L 54.890625 -256.1875 L 128.09375 -256.1875 L 128.09375 -219.59375 Z M 54.890625 -219.59375 "/></g></g></g><g fill="#ffffff" fill-opacity="1"><g transform="translate(585.53361, 266.565858)"><g><path d="M 18.296875 0 L 18.296875 -219.59375 L 54.890625 -219.59375 L 54.890625 -183 L 128.09375 -183 L 128.09375 -146.390625 L 54.890625 -146.390625 L 54.890625 0 Z M 54.890625 -219.59375 L 54.890625 -256.1875 L 128.09375 -256.1875 L 128.09375 -219.59375 Z M 54.890625 -219.59375 "/></g></g></g><g fill="#ffffff" fill-opacity="1"><g transform="translate(731.917127, 266.565858)"><g><path d="M 164.6875 36.59375 L 164.6875 73.203125 L 54.890625 73.203125 L 54.890625 36.59375 Z M 18.296875 -36.59375 L 18.296875 -183 L 54.890625 -183 L 54.890625 -36.59375 Z M 54.890625 0 L 54.890625 -36.59375 L 164.6875 -36.59375 L 164.6875 -183 L 201.296875 -183 L 201.296875 36.59375 L 164.6875 36.59375 L 164.6875 0 Z M 54.890625 0 "/></g></g></g></g></g><g transform="matrix(1, 0, 0, 1, 935, 32)"><g clip-path="url(#9212cc69b8)"><g fill="#ffffff" fill-opacity="1"><g transform="translate(0.6863, 72.459806)"><g><path d="M 14.453125 -57.828125 L 14.453125 -48.1875 L 4.8125 -48.1875 L 4.8125 -57.828125 Z M 4.8125 -9.640625 L 4.8125 -19.28125 L 14.453125 -19.28125 L 14.453125 -9.640625 Z M 14.453125 0 L 14.453125 -9.640625 L 43.375 -9.640625 L 43.375 0 Z M 14.453125 -57.828125 L 14.453125 -67.46875 L 43.375 -67.46875 L 43.375 -57.828125 Z M 24.09375 -28.90625 L 24.09375 -38.546875 L 43.375 -38.546875 L 43.375 -28.90625 Z M 43.375 -9.640625 L 43.375 -28.90625 L 53 -28.90625 L 53 -9.640625 Z M 43.375 -38.546875 L 43.375 -57.828125 L 53 -57.828125 L 53 -38.546875 Z M 43.375 -38.546875 "/></g></g></g><g fill="#ffffff" fill-opacity="1"><g transform="translate(58.509215, 72.459806)"><g><path d="M 4.8125 -9.640625 L 4.8125 -57.828125 L 14.453125 -57.828125 L 14.453125 -38.546875 L 43.375 -38.546875 L 43.375 -28.90625 L 14.453125 -28.90625 L 14.453125 -9.640625 Z M 14.453125 0 L 14.453125 -9.640625 L 43.375 -9.640625 L 43.375 0 Z M 14.453125 -57.828125 L 14.453125 -67.46875 L 43.375 -67.46875 L 43.375 -57.828125 Z M 43.375 -9.640625 L 43.375 -28.90625 L 53 -28.90625 L 53 -9.640625 Z M 43.375 -48.1875 L 43.375 -57.828125 L 53 -57.828125 L 53 -48.1875 Z M 43.375 -48.1875 "/></g></g></g><g fill="#ffffff" fill-opacity="1"><g transform="translate(116.33213, 72.459806)"><g><path d="M 43.375 -9.640625 L 43.375 0 L 14.453125 0 L 14.453125 -9.640625 Z M 4.8125 -9.640625 L 4.8125 -57.828125 L 14.453125 -57.828125 L 14.453125 -9.640625 Z M 14.453125 -57.828125 L 14.453125 -67.46875 L 43.375 -67.46875 L 43.375 -57.828125 Z M 24.09375 -28.90625 L 24.09375 -38.546875 L 33.734375 -38.546875 L 33.734375 -28.90625 Z M 43.375 -9.640625 L 43.375 -57.828125 L 53 -57.828125 L 53 -9.640625 Z M 43.375 -9.640625 "/></g></g></g></g></g></svg>