<svg xmlns="http://www.w3.org/2000/svg" xmlns:xlink="http://www.w3.org/1999/xlink" width="500" zoomAndPan="magnify" viewBox="0 0 375 374.999991" height="500" preserveAspectRatio="xMidYMid meet" version="1.0"><defs><g/><clipPath id="d9ed671d59"><path d="M 54 23.25 L 335.597656 23.25 L 335.597656 196.5 L 54 196.5 Z M 54 23.25 " clip-rule="nonzero"/></clipPath><clipPath id="066fc23f36"><path d="M 50 180 L 129 180 L 129 196.5 L 50 196.5 Z M 50 180 " clip-rule="nonzero"/></clipPath><clipPath id="35126d698e"><path d="M 101 23.25 L 127 23.25 L 127 40 L 101 40 Z M 101 23.25 " clip-rule="nonzero"/></clipPath><clipPath id="8e741cbac1"><path d="M 20.597656 86 L 46 86 L 46 103 L 20.597656 103 Z M 20.597656 86 " clip-rule="nonzero"/></clipPath><clipPath id="96916b4c6e"><rect x="0" width="338" y="0" height="155"/></clipPath></defs><path fill="#291b25" d="M 224.054688 62.667969 L 218 99.125 C 220.03125 98.539062 222.082031 97.640625 224.089844 96.949219 C 229.445312 95.09375 236.339844 92.230469 241.894531 90.144531 C 245.824219 88.667969 249.902344 87.101562 253.789062 85.585938 C 255.386719 84.960938 265.042969 81.390625 265.660156 80.976562 C 265.074219 79.613281 259.632812 74.222656 258.363281 73.28125 C 257.671875 72.773438 257.042969 72.175781 256.28125 71.660156 C 255.519531 71.144531 254.839844 70.652344 254.003906 70.082031 C 249.640625 67.097656 243.347656 64.542969 237.953125 63.449219 C 234.160156 62.679688 227.960938 62.011719 224.054688 62.667969 Z M 185.917969 88.816406 C 186.503906 89.554688 193.019531 94.847656 194.355469 96.0625 C 197.75 99.148438 202.882812 103.078125 206.390625 106.273438 C 208.320312 108.027344 211.210938 110.265625 213.304688 112.085938 C 213.40625 111.933594 213.335938 112.109375 213.4375 111.78125 L 221.515625 62.933594 C 210.558594 64.480469 202.6875 69.160156 195.695312 75.515625 C 194.324219 76.761719 193.347656 78.023438 191.988281 79.515625 C 191.441406 80.113281 190.757812 80.984375 190.292969 81.675781 C 188.949219 83.683594 188.601562 84.03125 187.261719 86.355469 C 186.832031 87.09375 186.378906 88.144531 185.925781 88.824219 Z M 233.0625 96.125 C 233.421875 96.394531 233.738281 96.738281 234.140625 97.046875 C 234.578125 97.386719 234.886719 97.65625 235.378906 98.03125 C 235.832031 98.378906 236.167969 98.570312 236.664062 98.976562 L 241.5625 102.832031 C 242 103.164062 242.355469 103.507812 242.777344 103.832031 C 243.671875 104.515625 244.269531 105.039062 245.179688 105.734375 L 264.757812 121.136719 C 265.597656 121.742188 266.449219 122.449219 267.273438 123.074219 L 272.105469 126.875 C 273.359375 124.40625 274.574219 119.132812 274.984375 115.964844 C 276.273438 105.996094 274.558594 96.132812 269.875 87.414062 C 269.011719 85.816406 268.105469 84.5 267.273438 83.054688 Z M 234.691406 156.230469 C 237.984375 156.207031 244.480469 153.945312 247.171875 152.777344 C 251.140625 151.054688 256.394531 147.800781 259.3125 145.054688 C 260.089844 144.324219 260.695312 143.832031 261.394531 143.136719 C 262.121094 142.421875 262.582031 141.835938 263.351562 141.089844 C 263.964844 140.492188 264.527344 139.652344 265.089844 138.96875 C 266.679688 137.023438 270.496094 131.542969 271.121094 129.128906 L 243.261719 107.308594 C 242.777344 108.289062 242.363281 112.074219 242.117188 113.464844 L 236.824219 144.046875 C 236.125 148.039062 235.539062 152.339844 234.699219 156.230469 Z M 238.285156 121.058594 L 190.980469 138.34375 C 192.425781 140.285156 194.527344 142.660156 196.339844 144.199219 C 196.957031 144.714844 197.625 145.492188 198.296875 145.945312 C 199.597656 146.839844 200.875 148.03125 202.65625 149.144531 C 207.757812 152.347656 212.265625 154.300781 218.5 155.691406 C 221.328125 156.324219 229.414062 157.253906 232.207031 156.484375 L 238.292969 121.058594 Z M 184.886719 91.246094 C 184.253906 92.277344 183.363281 95.183594 182.972656 96.578125 C 179.546875 108.503906 180.992188 121.003906 186.75 131.84375 L 189.378906 136.261719 C 191.125 135.796875 195.871094 133.898438 198.042969 133.144531 C 200.910156 132.144531 203.671875 131.089844 206.519531 130.058594 C 209.34375 129.042969 212.175781 128.019531 214.992188 126.964844 C 215.757812 126.683594 222.851562 124.328125 223.421875 123.75 Z M 184.886719 91.246094 " fill-opacity="1" fill-rule="evenodd"/><path fill="#291b25" d="M 74.402344 55.328125 L 40.960938 55.328125 C 36.644531 55.328125 33.113281 58.859375 33.113281 63.171875 C 33.113281 67.488281 36.644531 71.019531 40.960938 71.019531 L 74.402344 71.019531 C 78.71875 71.019531 82.25 67.488281 82.25 63.171875 C 82.25 58.859375 78.71875 55.328125 74.402344 55.328125 Z M 74.402344 55.328125 " fill-opacity="1" fill-rule="evenodd"/><g clip-path="url(#d9ed671d59)"><path fill="#ed5b2d" d="M 231.429688 166.496094 C 230.375 166.554688 229.316406 166.578125 228.246094 166.578125 C 228.144531 166.578125 228.039062 166.578125 227.9375 166.578125 C 227.839844 166.578125 227.738281 166.578125 227.628906 166.578125 C 196.328125 166.578125 170.9375 141.191406 170.9375 109.886719 C 170.9375 78.582031 196.328125 53.195312 227.628906 53.195312 C 227.730469 53.195312 227.832031 53.195312 227.9375 53.195312 C 228.039062 53.195312 228.136719 53.195312 228.246094 53.195312 C 229.316406 53.195312 230.375 53.226562 231.429688 53.28125 C 261.257812 54.933594 284.9375 79.644531 284.9375 109.886719 C 284.9375 140.121094 261.257812 164.839844 231.429688 166.496094 Z M 275.527344 23.546875 L 229.390625 23.546875 C 228.90625 23.523438 228.429688 23.515625 227.945312 23.515625 C 227.460938 23.507812 226.984375 23.515625 226.5 23.546875 L 145.351562 23.546875 C 141.035156 23.546875 137.503906 27.078125 137.503906 31.394531 C 137.503906 35.707031 141.035156 39.238281 145.351562 39.238281 L 177.515625 39.238281 C 177.585938 39.238281 177.648438 39.246094 177.714844 39.246094 L 177.722656 39.246094 C 177.855469 39.253906 177.984375 39.261719 178.117188 39.277344 L 178.125 39.277344 C 178.1875 39.285156 178.253906 39.292969 178.316406 39.300781 C 178.507812 39.324219 178.699219 39.355469 178.894531 39.394531 L 178.902344 39.394531 L 179.085938 39.433594 L 179.269531 39.476562 L 179.453125 39.53125 L 179.632812 39.585938 L 179.648438 39.585938 L 179.824219 39.640625 L 179.839844 39.640625 L 179.953125 39.679688 C 180.101562 39.730469 180.246094 39.785156 180.394531 39.847656 C 183.203125 41.046875 185.179688 43.839844 185.179688 47.070312 C 185.179688 51.386719 181.648438 54.917969 177.332031 54.917969 L 106.367188 54.917969 C 102.054688 54.917969 98.523438 58.449219 98.523438 62.765625 C 98.523438 67.082031 102.054688 70.613281 106.367188 70.613281 L 136.902344 70.613281 L 137.050781 70.621094 L 137.109375 70.621094 L 137.25 70.628906 L 137.296875 70.628906 L 137.472656 70.644531 L 137.488281 70.644531 L 137.65625 70.660156 L 137.710938 70.667969 L 137.84375 70.683594 L 137.894531 70.691406 L 138.058594 70.714844 L 138.074219 70.714844 L 138.25 70.742188 L 138.296875 70.75 L 138.425781 70.78125 L 138.480469 70.796875 L 138.617188 70.828125 L 138.648438 70.835938 L 138.820312 70.882812 L 138.859375 70.890625 L 138.988281 70.929688 L 139.042969 70.945312 L 139.15625 70.984375 L 139.210938 70.996094 L 139.371094 71.050781 L 139.386719 71.058594 L 139.535156 71.113281 L 139.582031 71.128906 L 139.703125 71.175781 L 139.75 71.199219 L 139.902344 71.265625 L 139.910156 71.265625 L 140.113281 71.367188 L 140.226562 71.421875 L 140.273438 71.445312 L 140.394531 71.511719 L 140.417969 71.527344 L 140.574219 71.613281 L 140.605469 71.628906 L 140.71875 71.699219 L 140.765625 71.722656 L 140.878906 71.789062 L 140.910156 71.8125 L 141.058594 71.90625 L 141.082031 71.921875 L 141.195312 72.003906 L 141.242188 72.035156 L 141.34375 72.113281 L 141.382812 72.144531 L 141.519531 72.25 L 141.648438 72.359375 L 141.6875 72.390625 L 141.789062 72.476562 L 141.828125 72.503906 L 141.941406 72.605469 L 141.957031 72.621094 L 142.082031 72.738281 L 142.113281 72.765625 L 142.203125 72.859375 L 142.335938 72.992188 L 142.367188 73.019531 L 142.480469 73.144531 L 142.503906 73.167969 L 142.597656 73.265625 L 142.636719 73.304688 L 142.71875 73.40625 L 142.742188 73.4375 L 142.851562 73.574219 L 142.859375 73.582031 L 142.957031 73.707031 L 142.988281 73.753906 L 143.058594 73.84375 L 143.089844 73.890625 L 143.179688 74.019531 L 143.1875 74.035156 L 143.289062 74.183594 L 143.3125 74.214844 L 143.382812 74.328125 L 143.402344 74.375 L 143.472656 74.5 L 143.488281 74.519531 L 143.574219 74.675781 L 143.597656 74.714844 L 143.65625 74.828125 L 143.679688 74.875 L 143.742188 74.992188 L 143.757812 75.027344 L 143.835938 75.183594 L 143.84375 75.207031 L 143.902344 75.34375 L 143.925781 75.390625 L 143.972656 75.515625 L 143.988281 75.558594 L 143.996094 75.589844 C 144.058594 75.738281 144.105469 75.890625 144.15625 76.042969 C 144.398438 76.796875 144.527344 77.589844 144.527344 78.421875 C 144.527344 82.738281 140.996094 86.269531 136.679688 86.269531 L 62.371094 86.269531 C 58.054688 86.269531 54.523438 89.800781 54.523438 94.117188 C 54.523438 98.433594 58.054688 101.964844 62.371094 101.964844 L 120.09375 101.964844 L 120.085938 101.988281 C 120.285156 102 120.476562 102.023438 120.671875 102.046875 C 124.449219 102.609375 127.363281 105.886719 127.363281 109.808594 C 127.363281 113.734375 124.449219 117.011719 120.671875 117.574219 C 120.476562 117.605469 120.285156 117.625 120.085938 117.632812 L 120.09375 117.65625 L 78.480469 117.65625 C 74.164062 117.65625 70.632812 121.1875 70.632812 125.503906 C 70.632812 129.820312 74.164062 133.351562 78.480469 133.351562 L 136.679688 133.351562 C 140.996094 133.351562 144.527344 136.882812 144.527344 141.199219 C 144.527344 142.03125 144.398438 142.824219 144.15625 143.578125 C 144.113281 143.730469 144.058594 143.875 143.996094 144.03125 L 143.988281 144.054688 L 143.972656 144.097656 L 143.925781 144.214844 L 143.902344 144.269531 L 143.851562 144.398438 L 143.84375 144.421875 L 143.773438 144.578125 L 143.75 144.621094 L 143.695312 144.738281 L 143.671875 144.792969 L 143.621094 144.898438 L 143.597656 144.945312 L 143.511719 145.09375 L 143.496094 145.121094 L 143.425781 145.238281 L 143.394531 145.285156 L 143.328125 145.390625 L 143.304688 145.429688 L 143.210938 145.578125 L 143.195312 145.597656 L 143.113281 145.722656 L 143.074219 145.769531 L 143.003906 145.859375 L 142.972656 145.90625 L 142.882812 146.03125 L 142.867188 146.046875 L 142.757812 146.175781 L 142.726562 146.207031 L 142.640625 146.308594 L 142.605469 146.347656 L 142.519531 146.445312 L 142.488281 146.476562 L 142.375 146.601562 L 142.34375 146.628906 L 142.210938 146.761719 L 142.121094 146.855469 L 142.089844 146.882812 L 141.964844 147 L 141.941406 147.015625 L 141.835938 147.109375 L 141.796875 147.144531 L 141.65625 147.261719 L 141.535156 147.363281 L 141.527344 147.367188 L 141.394531 147.46875 L 141.359375 147.5 L 141.257812 147.578125 L 141.210938 147.609375 L 141.097656 147.691406 L 141.074219 147.707031 L 140.925781 147.800781 L 140.894531 147.824219 L 140.78125 147.890625 L 140.734375 147.914062 L 140.621094 147.984375 L 140.589844 148 L 140.433594 148.085938 L 140.410156 148.101562 L 140.289062 148.167969 L 140.242188 148.191406 L 140.125 148.246094 L 140.082031 148.269531 L 139.925781 148.347656 L 139.917969 148.355469 L 139.765625 148.421875 L 139.71875 148.445312 L 139.597656 148.492188 L 139.550781 148.507812 L 139.402344 148.5625 L 139.386719 148.570312 L 139.226562 148.625 L 139.171875 148.636719 L 139.058594 148.675781 L 139.003906 148.691406 L 138.871094 148.730469 L 138.835938 148.738281 L 138.664062 148.785156 L 138.632812 148.792969 L 138.496094 148.824219 L 138.441406 148.839844 L 138.410156 148.847656 C 137.980469 148.9375 137.558594 149 137.140625 149.023438 L 137.097656 149.023438 L 136.996094 149.03125 L 106.414062 149.03125 C 102.097656 149.03125 98.566406 152.5625 98.566406 156.878906 C 98.566406 161.195312 102.097656 164.726562 106.414062 164.726562 L 177.378906 164.726562 C 181.695312 164.726562 185.226562 168.257812 185.226562 172.570312 C 185.226562 175.804688 183.246094 178.597656 180.441406 179.796875 C 180.292969 179.859375 180.148438 179.917969 180 179.964844 L 180.457031 180.417969 L 145.40625 180.417969 C 141.089844 180.417969 137.558594 183.949219 137.558594 188.265625 C 137.558594 192.582031 141.089844 196.113281 145.40625 196.113281 L 226.5625 196.113281 L 226.523438 196.113281 C 227.015625 196.136719 227.507812 196.152344 228 196.144531 C 228.492188 196.152344 228.984375 196.144531 229.476562 196.113281 L 229.4375 196.113281 L 287.90625 196.113281 C 314.078125 196.113281 335.488281 174.703125 335.488281 148.53125 L 335.488281 70.988281 C 335.488281 44.816406 314.078125 23.40625 287.90625 23.40625 L 275.574219 23.40625 Z M 275.527344 23.546875 " fill-opacity="1" fill-rule="evenodd"/></g><path fill="#291b25" d="M 55.902344 117.695312 L 39.175781 117.695312 C 34.859375 117.695312 31.328125 121.226562 31.328125 125.542969 C 31.328125 129.859375 34.859375 133.390625 39.175781 133.390625 L 55.902344 133.390625 C 60.214844 133.390625 63.746094 129.859375 63.746094 125.542969 C 63.746094 121.226562 60.214844 117.695312 55.902344 117.695312 Z M 55.902344 117.695312 " fill-opacity="1" fill-rule="evenodd"/><g clip-path="url(#066fc23f36)"><path fill="#291b25" d="M 120.65625 180.359375 L 58.578125 180.359375 C 54.261719 180.359375 50.730469 183.890625 50.730469 188.203125 C 50.730469 192.519531 54.261719 196.050781 58.578125 196.050781 L 120.65625 196.050781 C 124.972656 196.050781 128.503906 192.519531 128.503906 188.203125 C 128.503906 183.890625 124.972656 180.359375 120.65625 180.359375 Z M 120.65625 180.359375 " fill-opacity="1" fill-rule="evenodd"/></g><g clip-path="url(#35126d698e)"><path fill="#291b25" d="M 118.871094 23.4375 L 109.609375 23.4375 C 105.292969 23.4375 101.761719 26.96875 101.761719 31.285156 C 101.761719 35.601562 105.292969 39.132812 109.609375 39.132812 L 118.871094 39.132812 C 123.1875 39.132812 126.71875 35.601562 126.71875 31.285156 C 126.71875 26.96875 123.1875 23.4375 118.871094 23.4375 Z M 118.871094 23.4375 " fill-opacity="1" fill-rule="evenodd"/></g><path fill="#291b25" d="M 75.003906 149.207031 L 65.742188 149.207031 C 61.425781 149.207031 57.894531 152.738281 57.894531 157.054688 C 57.894531 161.371094 61.425781 164.902344 65.742188 164.902344 L 75.003906 164.902344 C 79.320312 164.902344 82.851562 161.371094 82.851562 157.054688 C 82.851562 152.738281 79.320312 149.207031 75.003906 149.207031 Z M 75.003906 149.207031 " fill-opacity="1" fill-rule="evenodd"/><g clip-path="url(#8e741cbac1)"><path fill="#291b25" d="M 37.707031 86.398438 L 28.445312 86.398438 C 24.128906 86.398438 20.597656 89.929688 20.597656 94.246094 C 20.597656 98.5625 24.128906 102.09375 28.445312 102.09375 L 37.707031 102.09375 C 42.023438 102.09375 45.554688 98.5625 45.554688 94.246094 C 45.554688 89.929688 42.023438 86.398438 37.707031 86.398438 Z M 37.707031 86.398438 " fill-opacity="1" fill-rule="evenodd"/></g><g transform="matrix(1, 0, 0, 1, 9, 216)"><g clip-path="url(#96916b4c6e)"><g fill="#291b25" fill-opacity="1"><g transform="translate(0.745918, 102.705362)"><g><path d="M 4.28125 -68.65625 L 22.984375 -68.65625 L 22.984375 0 L 4.28125 0 Z M 4.28125 -68.65625 "/></g></g></g><g fill="#291b25" fill-opacity="1"><g transform="translate(28.012396, 102.705362)"><g><path d="M 20.953125 0 L 4.28125 0 L 4.28125 -68.65625 L 24.703125 -68.65625 L 35.828125 -31.96875 L 46.953125 -68.65625 L 67.375 -68.65625 L 67.375 0 L 50.796875 0 L 50.796875 -43.625 L 42.234375 -14.859375 L 29.40625 -14.859375 L 20.953125 -43.421875 Z M 20.953125 0 "/></g></g></g><g fill="#291b25" fill-opacity="1"><g transform="translate(99.653734, 102.705362)"><g><path d="M 39.25 0 L 37.109375 -10.265625 L 20.640625 -10.265625 L 18.390625 0 L 0 0 L 17.640625 -68.65625 L 40.421875 -68.65625 L 58.0625 0 Z M 23.53125 -23.53125 L 34.21875 -23.53125 L 28.984375 -48.234375 Z M 23.53125 -23.53125 "/></g></g></g><g fill="#291b25" fill-opacity="1"><g transform="translate(157.715298, 102.705362)"><g><path d="M 50.375 -45.125 L 31.65625 -45.125 L 31.65625 -54 C 31.65625 -55.570312 30.765625 -56.359375 28.984375 -56.359375 L 25.125 -56.359375 C 23.34375 -56.359375 22.453125 -55.570312 22.453125 -54 L 22.453125 -14.65625 C 22.453125 -13.082031 23.34375 -12.296875 25.125 -12.296875 L 28.984375 -12.296875 C 30.765625 -12.296875 31.65625 -13.082031 31.65625 -14.65625 L 31.65625 -26.09375 L 26.3125 -26.09375 L 26.3125 -37.96875 L 50.375 -37.96875 L 50.375 -13.265625 C 50.375 -4.421875 45.128906 0 34.640625 0 L 19.46875 0 C 8.988281 0 3.75 -4.421875 3.75 -13.265625 L 3.75 -55.390625 C 3.75 -64.234375 8.988281 -68.65625 19.46875 -68.65625 L 34.640625 -68.65625 C 45.128906 -68.65625 50.375 -64.234375 50.375 -55.390625 Z M 50.375 -45.125 "/></g></g></g><g fill="#291b25" fill-opacity="1"><g transform="translate(211.285909, 102.705362)"><g><path d="M 22.984375 -13.359375 L 46.40625 -13.359375 L 46.40625 0 L 4.28125 0 L 4.28125 -68.65625 L 45.453125 -68.65625 L 45.453125 -55.28125 L 22.984375 -55.28125 L 22.984375 -41.28125 L 42.34375 -41.28125 L 42.34375 -27.90625 L 22.984375 -27.90625 Z M 22.984375 -13.359375 "/></g></g></g><g fill="#291b25" fill-opacity="1"><g transform="translate(259.296308, 102.705362)"><g><path d="M 3.953125 -58.703125 L 3.953125 -71.546875 L 22.78125 -71.546875 L 22.78125 -58.703125 Z M 22.453125 0 L 4.28125 0 L 4.28125 -53.359375 L 22.453125 -53.359375 Z M 22.453125 0 "/></g></g></g><g fill="#291b25" fill-opacity="1"><g transform="translate(286.028148, 102.705362)"><g><path d="M 29.09375 -53.359375 L 46.953125 -53.359375 L 46.953125 13.796875 L 28.765625 13.796875 L 28.765625 -5.78125 C 27.410156 -1.925781 24.273438 0 19.359375 0 L 17.4375 0 C 7.945312 0 3.203125 -4.421875 3.203125 -13.265625 L 3.203125 -40.09375 C 3.203125 -48.9375 7.945312 -53.359375 17.4375 -53.359375 L 19.359375 -53.359375 C 24.847656 -53.359375 28.09375 -51.078125 29.09375 -46.515625 Z M 24.0625 -13.359375 L 25.875 -13.359375 C 27.800781 -13.359375 28.765625 -14.429688 28.765625 -16.578125 L 28.765625 -36.78125 C 28.765625 -38.925781 27.800781 -40 25.875 -40 L 24.0625 -40 C 22.28125 -40 21.390625 -39.210938 21.390625 -37.640625 L 21.390625 -15.71875 C 21.390625 -14.144531 22.28125 -13.359375 24.0625 -13.359375 Z M 24.0625 -13.359375 "/></g></g></g></g></g></svg>