<svg xmlns="http://www.w3.org/2000/svg" xmlns:xlink="http://www.w3.org/1999/xlink" width="500" zoomAndPan="magnify" viewBox="0 0 375 374.999991" height="500" preserveAspectRatio="xMidYMid meet" version="1.0"><defs><g/><clipPath id="5e8ddb3006"><path d="M 0.921875 25 L 89 25 L 89 70 L 0.921875 70 Z M 0.921875 25 " clip-rule="nonzero"/></clipPath><clipPath id="28c82805e4"><path d="M 11 13 L 79 13 L 79 81.8125 L 11 81.8125 Z M 11 13 " clip-rule="nonzero"/></clipPath><clipPath id="1899193848"><rect x="0" width="366" y="0" height="93"/></clipPath></defs><g transform="matrix(1, 0, 0, 1, 5, 131)"><g clip-path="url(#1899193848)"><path fill="#5e17eb" d="M 39.945312 60.730469 L 39.945312 54.101562 C 39.945312 53.898438 39.828125 53.695312 39.652344 53.59375 L 33.902344 50.277344 L 33.902344 44.492188 L 39.652344 41.175781 C 39.828125 41.074219 39.945312 40.871094 39.945312 40.667969 L 39.945312 34.039062 L 43.933594 31.730469 L 43.933594 63.039062 Z M 45.972656 31.730469 L 45.972656 63.039062 L 49.964844 60.730469 L 49.964844 54.101562 C 49.964844 53.898438 50.078125 53.695312 50.257812 53.59375 L 56.007812 50.277344 L 56.007812 44.492188 L 50.257812 41.175781 C 50.078125 41.074219 49.964844 40.882812 49.964844 40.667969 L 49.964844 34.039062 Z M 45.972656 31.730469 " fill-opacity="1" fill-rule="nonzero"/><g clip-path="url(#5e8ddb3006)"><path fill="#8c52ff" d="M 14.128906 27.804688 L 12.984375 27.140625 L 12.984375 25.828125 L 14.128906 25.164062 L 15.277344 25.828125 L 15.277344 27.140625 Z M 0.921875 46.722656 L 0.921875 48.046875 L 2.070312 48.710938 L 3.207031 48.046875 L 3.207031 46.722656 L 2.070312 46.058594 Z M 76.925781 27.140625 L 76.925781 25.828125 L 75.777344 25.164062 L 74.632812 25.828125 L 74.632812 27.140625 L 75.777344 27.804688 Z M 74.632812 67.628906 L 74.632812 68.941406 L 75.777344 69.605469 L 76.925781 68.941406 L 76.925781 67.628906 L 75.777344 66.964844 Z M 6.953125 57.175781 L 6.953125 58.5 L 8.101562 59.152344 L 9.234375 58.5 L 9.234375 57.175781 L 8.101562 56.511719 Z M 87.839844 46.058594 L 86.703125 46.722656 L 86.703125 48.046875 L 87.839844 48.710938 L 88.984375 48.046875 L 88.984375 46.722656 Z M 80.675781 36.28125 L 80.675781 37.59375 L 81.808594 38.257812 L 82.957031 37.59375 L 82.957031 36.28125 L 81.808594 35.617188 Z M 80.675781 57.175781 L 80.675781 58.5 L 81.808594 59.152344 L 82.957031 58.5 L 82.957031 57.175781 L 81.808594 56.511719 Z M 12.984375 67.628906 L 12.984375 68.941406 L 14.128906 69.605469 L 15.277344 68.941406 L 15.277344 67.628906 L 14.128906 66.964844 Z M 6.953125 36.28125 L 6.953125 37.59375 L 8.101562 38.257812 L 9.234375 37.59375 L 9.234375 36.28125 L 8.101562 35.617188 Z M 6.953125 36.28125 " fill-opacity="1" fill-rule="nonzero"/></g><path fill="#8c52ff" d="M 32.894531 42.730469 C 32.613281 42.566406 31.953125 42.183594 30.359375 41.265625 C 29.695312 40.882812 28.890625 40.410156 27.871094 39.824219 L 27.871094 34.039062 L 32.894531 31.144531 L 37.90625 34.039062 L 37.90625 39.824219 Z M 21.84375 44.492188 L 21.84375 50.277344 L 26.851562 53.171875 L 31.875 50.277344 L 31.875 44.492188 L 26.851562 41.597656 Z M 33.902344 29.386719 L 38.925781 32.277344 C 39.015625 32.226562 39.039062 32.214844 39.101562 32.175781 C 39.292969 32.0625 39.855469 31.742188 43.933594 29.386719 L 43.933594 23.585938 L 38.925781 20.691406 L 33.902344 23.585938 Z M 62.035156 39.824219 L 62.035156 34.039062 L 57.015625 31.144531 L 52.003906 34.039062 L 52.003906 39.824219 L 57.015625 42.730469 C 57.398438 42.515625 58.46875 41.890625 62.035156 39.824219 Z M 45.972656 29.386719 C 49.9375 31.679688 50.449219 31.972656 50.703125 32.113281 C 50.792969 32.164062 50.84375 32.203125 50.984375 32.277344 L 56.007812 29.386719 L 56.007812 23.585938 L 50.984375 20.691406 L 45.972656 23.585938 Z M 57.015625 63.625 L 62.035156 60.730469 L 62.035156 54.945312 C 60.648438 54.128906 59.613281 53.53125 58.863281 53.082031 C 57.640625 52.371094 57.167969 52.101562 57 52.011719 C 56.9375 52.050781 56.824219 52.113281 56.65625 52.214844 C 56.070312 52.574219 54.796875 53.324219 52.003906 54.945312 C 52.003906 56.015625 51.992188 56.90625 51.992188 57.648438 L 51.992188 59.546875 C 51.992188 60.183594 51.992188 60.539062 52.003906 60.730469 Z M 68.066406 50.277344 L 68.066406 44.492188 L 63.054688 41.597656 L 58.035156 44.492188 L 58.035156 50.277344 L 63.054688 53.171875 Z M 37.90625 60.730469 C 37.917969 60.527344 37.917969 60.171875 37.917969 59.519531 L 37.917969 57.582031 C 37.917969 56.855469 37.90625 55.988281 37.90625 54.945312 C 36.746094 54.269531 35.828125 53.734375 35.113281 53.324219 C 33.699219 52.496094 33.097656 52.152344 32.90625 52.023438 L 27.871094 54.945312 L 27.871094 60.730469 L 32.894531 63.625 C 33.902344 63.050781 37.203125 61.140625 37.90625 60.730469 Z M 56.007812 65.386719 L 50.984375 62.492188 C 50.804688 62.59375 50.753906 62.617188 50.691406 62.65625 C 50.511719 62.773438 50.167969 62.964844 45.972656 65.386719 L 45.972656 71.183594 C 46.179688 71.300781 46.625 71.554688 47.59375 72.117188 C 48.34375 72.550781 49.429688 73.175781 50.984375 74.078125 L 56.007812 71.183594 Z M 43.933594 65.386719 C 39.945312 63.078125 39.460938 62.796875 39.191406 62.644531 C 39.117188 62.605469 39.050781 62.566406 38.925781 62.492188 L 33.902344 65.386719 L 33.902344 71.183594 L 38.925781 74.078125 C 39.894531 73.519531 40.683594 73.058594 41.335938 72.691406 C 42.980469 71.734375 43.65625 71.351562 43.933594 71.183594 Z M 43.933594 65.386719 " fill-opacity="1" fill-rule="nonzero"/><g clip-path="url(#28c82805e4)"><path fill="#5e17eb" d="M 20.492188 39.964844 L 17.878906 38.449219 L 17.878906 35.425781 L 20.492188 33.910156 L 23.117188 35.425781 L 23.117188 38.449219 Z M 35.46875 17.53125 L 35.46875 14.546875 L 32.894531 13.054688 L 30.308594 14.546875 L 30.308594 17.53125 L 32.894531 19.019531 Z M 28.699219 27.742188 L 28.699219 25.230469 L 26.519531 23.980469 L 24.355469 25.230469 L 24.355469 27.742188 L 26.519531 29.003906 Z M 47.808594 19.097656 L 47.808594 15.808594 L 44.953125 14.152344 L 42.097656 15.808594 L 42.097656 19.097656 L 44.953125 20.753906 Z M 65.554688 27.742188 L 65.554688 25.230469 L 63.386719 23.980469 L 61.207031 25.230469 L 61.207031 27.742188 L 63.386719 29.003906 Z M 59.601562 17.53125 L 59.601562 14.546875 L 57.015625 13.054688 L 54.4375 14.546875 L 54.4375 17.53125 L 57.015625 19.019531 Z M 66.792969 56.320312 L 66.792969 59.34375 L 69.417969 60.859375 L 72.042969 59.34375 L 72.042969 56.320312 L 69.417969 54.804688 Z M 60.074219 66.378906 L 60.074219 70.191406 L 63.386719 72.101562 L 66.691406 70.191406 L 66.691406 66.378906 L 63.386719 64.46875 Z M 72.144531 45.472656 L 72.144531 49.296875 L 75.449219 51.195312 L 78.75 49.296875 L 78.75 45.472656 L 75.449219 43.574219 Z M 54.4375 77.242188 L 54.4375 80.222656 L 57.015625 81.714844 L 59.601562 80.222656 L 59.601562 77.242188 L 57.015625 75.75 Z M 66.792969 35.425781 L 66.792969 38.449219 L 69.417969 39.964844 L 72.042969 38.449219 L 72.042969 35.425781 L 69.417969 33.910156 Z M 11.160156 45.472656 L 11.160156 49.296875 L 14.460938 51.195312 L 17.761719 49.296875 L 17.761719 45.472656 L 14.460938 43.574219 Z M 17.878906 56.320312 L 17.878906 59.34375 L 20.492188 60.859375 L 23.117188 59.34375 L 23.117188 56.320312 L 20.492188 54.804688 Z M 23.21875 66.378906 L 23.21875 70.191406 L 26.519531 72.101562 L 29.835938 70.191406 L 29.835938 66.378906 L 26.519531 64.46875 Z M 45.3125 74.003906 C 45.285156 74.015625 45.273438 74.027344 45.246094 74.039062 C 45.070312 74.144531 44.839844 74.144531 44.660156 74.039062 C 44.648438 74.027344 44.625 74.015625 44.609375 74.003906 C 44.457031 74.09375 44.152344 74.269531 43.550781 74.613281 C 43.105469 74.882812 42.53125 75.226562 41.769531 75.660156 L 41.769531 78.960938 L 44.609375 80.617188 C 44.699219 80.566406 44.828125 80.53125 44.953125 80.53125 C 45.082031 80.53125 45.210938 80.566406 45.296875 80.617188 L 48.140625 78.960938 L 48.140625 75.660156 C 47.390625 75.226562 46.804688 74.882812 46.371094 74.628906 C 45.730469 74.257812 45.4375 74.078125 45.3125 74.003906 Z M 30.308594 77.242188 L 30.308594 80.222656 L 32.894531 81.714844 L 35.46875 80.222656 L 35.46875 77.242188 L 32.894531 75.75 Z M 30.308594 77.242188 " fill-opacity="1" fill-rule="nonzero"/></g><g fill="#5e17eb" fill-opacity="1"><g transform="translate(99.818611, 69.502096)"><g><path d="M 39.0625 -31.140625 C 39.0625 -28.484375 38.445312 -26.050781 37.21875 -23.84375 C 36 -21.644531 34.125 -19.867188 31.59375 -18.515625 C 29.0625 -17.160156 25.921875 -16.484375 22.171875 -16.484375 L 15.25 -16.484375 L 15.25 0 L 4.0625 0 L 4.0625 -45.921875 L 22.171875 -45.921875 C 25.835938 -45.921875 28.9375 -45.285156 31.46875 -44.015625 C 34 -42.753906 35.894531 -41.007812 37.15625 -38.78125 C 38.425781 -36.5625 39.0625 -34.015625 39.0625 -31.140625 Z M 21.328125 -25.390625 C 23.460938 -25.390625 25.050781 -25.890625 26.09375 -26.890625 C 27.144531 -27.890625 27.671875 -29.304688 27.671875 -31.140625 C 27.671875 -32.972656 27.144531 -34.390625 26.09375 -35.390625 C 25.050781 -36.390625 23.460938 -36.890625 21.328125 -36.890625 L 15.25 -36.890625 L 15.25 -25.390625 Z M 21.328125 -25.390625 "/></g></g></g><g fill="#5e17eb" fill-opacity="1"><g transform="translate(140.635182, 69.502096)"><g><path d="M 32.640625 -8.109375 L 15.5 -8.109375 L 12.75 0 L 1.046875 0 L 17.65625 -45.921875 L 30.625 -45.921875 L 47.234375 0 L 35.390625 0 Z M 29.765625 -16.75 L 24.078125 -33.5625 L 18.453125 -16.75 Z M 29.765625 -16.75 "/></g></g></g><g fill="#5e17eb" fill-opacity="1"><g transform="translate(188.843212, 69.502096)"><g><path d="M 27.484375 0 L 17.921875 -17.34375 L 15.25 -17.34375 L 15.25 0 L 4.0625 0 L 4.0625 -45.921875 L 22.828125 -45.921875 C 26.453125 -45.921875 29.539062 -45.285156 32.09375 -44.015625 C 34.644531 -42.753906 36.550781 -41.023438 37.8125 -38.828125 C 39.082031 -36.628906 39.71875 -34.175781 39.71875 -31.46875 C 39.71875 -28.414062 38.851562 -25.6875 37.125 -23.28125 C 35.40625 -20.882812 32.863281 -19.1875 29.5 -18.1875 L 40.109375 0 Z M 15.25 -25.25 L 22.171875 -25.25 C 24.222656 -25.25 25.757812 -25.75 26.78125 -26.75 C 27.8125 -27.757812 28.328125 -29.179688 28.328125 -31.015625 C 28.328125 -32.753906 27.8125 -34.125 26.78125 -35.125 C 25.757812 -36.132812 24.222656 -36.640625 22.171875 -36.640625 L 15.25 -36.640625 Z M 15.25 -25.25 "/></g></g></g><g fill="#5e17eb" fill-opacity="1"><g transform="translate(231.491291, 69.502096)"><g><path d="M 37.09375 -45.921875 L 37.09375 -36.96875 L 24.921875 -36.96875 L 24.921875 0 L 13.734375 0 L 13.734375 -36.96875 L 1.5625 -36.96875 L 1.5625 -45.921875 Z M 37.09375 -45.921875 "/></g></g></g><g fill="#5e17eb" fill-opacity="1"><g transform="translate(270.14929, 69.502096)"><g><path d="M 20.671875 0.453125 C 17.316406 0.453125 14.304688 -0.0859375 11.640625 -1.171875 C 8.984375 -2.265625 6.859375 -3.878906 5.265625 -6.015625 C 3.671875 -8.148438 2.832031 -10.722656 2.75 -13.734375 L 14.65625 -13.734375 C 14.832031 -12.035156 15.421875 -10.738281 16.421875 -9.84375 C 17.421875 -8.945312 18.726562 -8.5 20.34375 -8.5 C 22 -8.5 23.304688 -8.878906 24.265625 -9.640625 C 25.222656 -10.410156 25.703125 -11.472656 25.703125 -12.828125 C 25.703125 -13.960938 25.320312 -14.898438 24.5625 -15.640625 C 23.800781 -16.378906 22.863281 -16.988281 21.75 -17.46875 C 20.632812 -17.945312 19.054688 -18.492188 17.015625 -19.109375 C 14.046875 -20.023438 11.625 -20.9375 9.75 -21.84375 C 7.875 -22.757812 6.257812 -24.113281 4.90625 -25.90625 C 3.550781 -27.695312 2.875 -30.03125 2.875 -32.90625 C 2.875 -37.175781 4.421875 -40.519531 7.515625 -42.9375 C 10.617188 -45.363281 14.65625 -46.578125 19.625 -46.578125 C 24.6875 -46.578125 28.765625 -45.363281 31.859375 -42.9375 C 34.953125 -40.519531 36.609375 -37.15625 36.828125 -32.84375 L 24.734375 -32.84375 C 24.640625 -34.320312 24.09375 -35.488281 23.09375 -36.34375 C 22.09375 -37.195312 20.804688 -37.625 19.234375 -37.625 C 17.878906 -37.625 16.785156 -37.257812 15.953125 -36.53125 C 15.128906 -35.8125 14.71875 -34.78125 14.71875 -33.4375 C 14.71875 -31.945312 15.414062 -30.785156 16.8125 -29.953125 C 18.207031 -29.128906 20.390625 -28.238281 23.359375 -27.28125 C 26.316406 -26.28125 28.722656 -25.320312 30.578125 -24.40625 C 32.429688 -23.488281 34.035156 -22.15625 35.390625 -20.40625 C 36.742188 -18.664062 37.421875 -16.421875 37.421875 -13.671875 C 37.421875 -11.054688 36.753906 -8.679688 35.421875 -6.546875 C 34.097656 -4.410156 32.171875 -2.707031 29.640625 -1.4375 C 27.109375 -0.175781 24.117188 0.453125 20.671875 0.453125 Z M 20.671875 0.453125 "/></g></g></g><g fill="#8c52ff" fill-opacity="1"><g transform="translate(315.434419, 68.35969)"><g><path d="M 12.96875 0 L 3.921875 0 L 3.921875 -33.734375 L 12.96875 -33.734375 Z M 3.40625 -42.46875 C 3.40625 -43.820312 3.851562 -44.929688 4.75 -45.796875 C 5.65625 -46.671875 6.890625 -47.109375 8.453125 -47.109375 C 9.984375 -47.109375 11.207031 -46.671875 12.125 -45.796875 C 13.039062 -44.929688 13.5 -43.820312 13.5 -42.46875 C 13.5 -41.09375 13.035156 -39.96875 12.109375 -39.09375 C 11.179688 -38.226562 9.957031 -37.796875 8.4375 -37.796875 C 6.925781 -37.796875 5.707031 -38.226562 4.78125 -39.09375 C 3.863281 -39.96875 3.40625 -41.09375 3.40625 -42.46875 Z M 3.40625 -42.46875 "/></g></g></g><g fill="#8c52ff" fill-opacity="1"><g transform="translate(330.3832, 68.35969)"><g><path d="M 2.0625 -17.1875 C 2.0625 -22.476562 3.238281 -26.660156 5.59375 -29.734375 C 7.957031 -32.816406 11.195312 -34.359375 15.3125 -34.359375 C 18.925781 -34.359375 21.804688 -32.976562 23.953125 -30.21875 L 24.546875 -33.734375 L 32.453125 -33.734375 L 32.453125 12.96875 L 23.421875 12.96875 L 23.421875 -2.90625 C 21.335938 -0.550781 18.613281 0.625 15.25 0.625 C 11.238281 0.625 8.035156 -0.929688 5.640625 -4.046875 C 3.253906 -7.171875 2.0625 -11.550781 2.0625 -17.1875 Z M 11.0625 -16.53125 C 11.0625 -13.300781 11.628906 -10.84375 12.765625 -9.15625 C 13.898438 -7.476562 15.5 -6.640625 17.5625 -6.640625 C 20.320312 -6.640625 22.273438 -7.742188 23.421875 -9.953125 L 23.421875 -23.890625 C 22.296875 -26.003906 20.363281 -27.0625 17.625 -27.0625 C 15.539062 -27.0625 13.925781 -26.21875 12.78125 -24.53125 C 11.632812 -22.851562 11.0625 -20.1875 11.0625 -16.53125 Z M 11.0625 -16.53125 "/></g></g></g></g></g></svg>