<svg xmlns="http://www.w3.org/2000/svg" xmlns:xlink="http://www.w3.org/1999/xlink" width="2000" zoomAndPan="magnify" viewBox="0 0 1500 749.999995" height="1000" preserveAspectRatio="xMidYMid meet" version="1.0"><defs><g/><clipPath id="0dbcb55295"><path d="M 154.007812 22.457031 L 518.507812 22.457031 L 518.507812 602.207031 L 154.007812 602.207031 Z M 154.007812 22.457031 " clip-rule="nonzero"/></clipPath><clipPath id="e8581d744d"><path d="M 518.746094 22.457031 L 937.246094 22.457031 L 937.246094 587.207031 L 518.746094 587.207031 Z M 518.746094 22.457031 " clip-rule="nonzero"/></clipPath><clipPath id="36ab577494"><path d="M 937.339844 14.601562 L 1373.839844 14.601562 L 1373.839844 579.351562 L 937.339844 579.351562 Z M 937.339844 14.601562 " clip-rule="nonzero"/></clipPath><clipPath id="c2453e1f82"><rect x="0" width="1249" y="0" height="116"/></clipPath></defs><g clip-path="url(#0dbcb55295)"><path fill="#000000" d="M 518.507812 138.796875 L 154.007812 138.796875 L 154.007812 22.53125 L 518.507812 22.53125 Z M 392.523438 602.132812 L 280.65625 602.132812 L 280.65625 217.773438 L 392.523438 217.773438 Z M 392.523438 602.132812 " fill-opacity="1" fill-rule="nonzero"/></g><g clip-path="url(#e8581d744d)"><path fill="#000000" d="M 614.828125 406.304688 L 614.828125 203.457031 C 614.828125 198.828125 615.300781 194.316406 616.019531 189.886719 L 519.28125 189.886719 C 518.945312 194.371094 518.71875 198.886719 518.71875 203.457031 L 518.71875 406.304688 C 518.71875 505.949219 599.714844 587.015625 699.277344 587.015625 L 937.175781 587.015625 L 937.175781 490.828125 L 699.277344 490.828125 C 652.710938 490.828125 614.828125 452.910156 614.828125 406.304688 Z M 699.277344 22.746094 C 630.214844 22.746094 570.109375 61.773438 539.75 118.933594 L 937.175781 118.933594 L 937.175781 22.746094 Z M 699.277344 22.746094 " fill-opacity="1" fill-rule="nonzero"/></g><g clip-path="url(#36ab577494)"><path fill="#000000" d="M 1033.691406 398.542969 L 1033.691406 195.511719 C 1033.691406 148.863281 1071.640625 110.914062 1118.289062 110.914062 L 1356.59375 110.914062 L 1356.59375 14.636719 L 1118.289062 14.636719 C 1018.554688 14.636719 937.417969 95.777344 937.417969 195.511719 L 937.417969 398.542969 C 937.417969 498.277344 1018.554688 579.417969 1118.289062 579.417969 L 1206.472656 579.417969 L 1206.472656 483.140625 L 1118.289062 483.140625 C 1071.640625 483.140625 1033.691406 445.191406 1033.691406 398.542969 Z M 1274.003906 248.890625 L 1105.875 248.890625 L 1105.875 345.164062 L 1274.003906 345.164062 C 1275.890625 345.164062 1277.488281 346.761719 1277.488281 348.644531 L 1277.488281 579.242188 C 1330.871094 577.382812 1373.757812 533.492188 1373.757812 479.660156 L 1373.757812 348.644531 C 1373.757812 293.636719 1329.007812 248.890625 1274.003906 248.890625 Z M 1274.003906 248.890625 " fill-opacity="1" fill-rule="nonzero"/></g><g transform="matrix(1, 0, 0, 1, 153, 615)"><g clip-path="url(#c2453e1f82)"><g fill="#000000" fill-opacity="1"><g transform="translate(1.006609, 87.61542)"><g><path d="M 23.203125 -59.015625 L 0.375 -59.015625 L 0.375 -64.953125 L 52.890625 -64.953125 L 52.890625 -59.015625 L 30.0625 -59.015625 L 30.0625 0 L 23.203125 0 Z M 23.203125 -59.015625 "/></g></g></g><g fill="#000000" fill-opacity="1"><g transform="translate(68.181282, 87.61542)"><g><path d="M 64.859375 -64.953125 L 64.859375 0 L 58.078125 0 L 58.078125 -29.96875 L 17.4375 -29.96875 L 17.4375 0 L 10.578125 0 L 10.578125 -64.953125 L 17.4375 -64.953125 L 17.4375 -36 L 58.078125 -36 L 58.078125 -64.953125 Z M 64.859375 -64.953125 "/></g></g></g><g fill="#000000" fill-opacity="1"><g transform="translate(157.528, 87.61542)"><g><path d="M 56.5 -5.9375 L 56.5 0 L 10.578125 0 L 10.578125 -64.953125 L 55.109375 -64.953125 L 55.109375 -59.015625 L 17.4375 -59.015625 L 17.4375 -35.90625 L 51.03125 -35.90625 L 51.03125 -30.0625 L 17.4375 -30.0625 L 17.4375 -5.9375 Z M 56.5 -5.9375 "/></g></g></g><g fill="#000000" fill-opacity="1"><g transform="translate(233.515855, 87.61542)"><g/></g></g><g fill="#000000" fill-opacity="1"><g transform="translate(271.746315, 87.61542)"><g><path d="M 38.78125 0.5625 C 32.351562 0.5625 26.554688 -0.859375 21.390625 -3.703125 C 16.222656 -6.554688 12.171875 -10.503906 9.234375 -15.546875 C 6.296875 -20.585938 4.828125 -26.226562 4.828125 -32.46875 C 4.828125 -38.71875 6.296875 -44.363281 9.234375 -49.40625 C 12.171875 -54.445312 16.234375 -58.390625 21.421875 -61.234375 C 26.617188 -64.078125 32.4375 -65.5 38.875 -65.5 C 43.695312 -65.5 48.148438 -64.691406 52.234375 -63.078125 C 56.316406 -61.472656 59.78125 -59.128906 62.625 -56.046875 L 58.265625 -51.671875 C 53.191406 -56.804688 46.789062 -59.375 39.0625 -59.375 C 33.925781 -59.375 29.253906 -58.195312 25.046875 -55.84375 C 20.835938 -53.5 17.539062 -50.285156 15.15625 -46.203125 C 12.78125 -42.117188 11.59375 -37.539062 11.59375 -32.46875 C 11.59375 -27.394531 12.78125 -22.816406 15.15625 -18.734375 C 17.539062 -14.660156 20.835938 -11.445312 25.046875 -9.09375 C 29.253906 -6.738281 33.925781 -5.5625 39.0625 -5.5625 C 46.851562 -5.5625 53.253906 -8.160156 58.265625 -13.359375 L 62.625 -9 C 59.78125 -5.90625 56.300781 -3.535156 52.1875 -1.890625 C 48.070312 -0.253906 43.601562 0.5625 38.78125 0.5625 Z M 38.78125 0.5625 "/></g></g></g><g fill="#000000" fill-opacity="1"><g transform="translate(352.372624, 87.61542)"><g><path d="M 64.859375 -64.953125 L 64.859375 0 L 58.078125 0 L 58.078125 -29.96875 L 17.4375 -29.96875 L 17.4375 0 L 10.578125 0 L 10.578125 -64.953125 L 17.4375 -64.953125 L 17.4375 -36 L 58.078125 -36 L 58.078125 -64.953125 Z M 64.859375 -64.953125 "/></g></g></g><g fill="#000000" fill-opacity="1"><g transform="translate(441.719341, 87.61542)"><g><path d="M 51.3125 -17.34375 L 15.125 -17.34375 L 7.328125 0 L 0.1875 0 L 29.875 -64.953125 L 36.65625 -64.953125 L 66.34375 0 L 59.109375 0 Z M 48.796875 -22.921875 L 33.21875 -57.796875 L 17.625 -22.921875 Z M 48.796875 -22.921875 "/></g></g></g><g fill="#000000" fill-opacity="1"><g transform="translate(522.160102, 87.61542)"><g><path d="M 10.578125 -64.953125 L 37.015625 -64.953125 C 43.878906 -64.953125 49.941406 -63.570312 55.203125 -60.8125 C 60.460938 -58.0625 64.546875 -54.226562 67.453125 -49.3125 C 70.359375 -44.394531 71.8125 -38.78125 71.8125 -32.46875 C 71.8125 -26.164062 70.359375 -20.550781 67.453125 -15.625 C 64.546875 -10.707031 60.460938 -6.875 55.203125 -4.125 C 49.941406 -1.375 43.878906 0 37.015625 0 L 10.578125 0 Z M 36.65625 -5.9375 C 42.34375 -5.9375 47.316406 -7.066406 51.578125 -9.328125 C 55.847656 -11.585938 59.160156 -14.710938 61.515625 -18.703125 C 63.867188 -22.691406 65.046875 -27.28125 65.046875 -32.46875 C 65.046875 -37.664062 63.867188 -42.257812 61.515625 -46.25 C 59.160156 -50.238281 55.847656 -53.363281 51.578125 -55.625 C 47.316406 -57.882812 42.34375 -59.015625 36.65625 -59.015625 L 17.4375 -59.015625 L 17.4375 -5.9375 Z M 36.65625 -5.9375 "/></g></g></g><g fill="#000000" fill-opacity="1"><g transform="translate(612.712802, 87.61542)"><g><path d="M 64.859375 -64.953125 L 64.859375 0 L 58.078125 0 L 58.078125 -29.96875 L 17.4375 -29.96875 L 17.4375 0 L 10.578125 0 L 10.578125 -64.953125 L 17.4375 -64.953125 L 17.4375 -36 L 58.078125 -36 L 58.078125 -64.953125 Z M 64.859375 -64.953125 "/></g></g></g><g fill="#000000" fill-opacity="1"><g transform="translate(702.05952, 87.61542)"><g><path d="M 51.3125 -17.34375 L 15.125 -17.34375 L 7.328125 0 L 0.1875 0 L 29.875 -64.953125 L 36.65625 -64.953125 L 66.34375 0 L 59.109375 0 Z M 48.796875 -22.921875 L 33.21875 -57.796875 L 17.625 -22.921875 Z M 48.796875 -22.921875 "/></g></g></g><g fill="#000000" fill-opacity="1"><g transform="translate(782.500281, 87.61542)"><g/></g></g><g fill="#000000" fill-opacity="1"><g transform="translate(820.730741, 87.61542)"><g><path d="M 56.3125 -32.46875 L 62.90625 -32.46875 L 62.90625 -7.703125 C 59.875 -5.046875 56.285156 -3.003906 52.140625 -1.578125 C 47.992188 -0.148438 43.632812 0.5625 39.0625 0.5625 C 32.5625 0.5625 26.710938 -0.859375 21.515625 -3.703125 C 16.328125 -6.554688 12.25 -10.503906 9.28125 -15.546875 C 6.3125 -20.585938 4.828125 -26.226562 4.828125 -32.46875 C 4.828125 -38.71875 6.3125 -44.363281 9.28125 -49.40625 C 12.25 -54.445312 16.328125 -58.390625 21.515625 -61.234375 C 26.710938 -64.078125 32.59375 -65.5 39.15625 -65.5 C 44.101562 -65.5 48.648438 -64.707031 52.796875 -63.125 C 56.941406 -61.550781 60.4375 -59.21875 63.28125 -56.125 L 59.015625 -51.765625 C 53.878906 -56.835938 47.351562 -59.375 39.4375 -59.375 C 34.175781 -59.375 29.425781 -58.210938 25.1875 -55.890625 C 20.945312 -53.578125 17.617188 -50.363281 15.203125 -46.25 C 12.796875 -42.132812 11.59375 -37.539062 11.59375 -32.46875 C 11.59375 -27.394531 12.796875 -22.816406 15.203125 -18.734375 C 17.617188 -14.660156 20.929688 -11.445312 25.140625 -9.09375 C 29.347656 -6.738281 34.082031 -5.5625 39.34375 -5.5625 C 46.019531 -5.5625 51.675781 -7.234375 56.3125 -10.578125 Z M 56.3125 -32.46875 "/></g></g></g><g fill="#000000" fill-opacity="1"><g transform="translate(906.366667, 87.61542)"><g><path d="M 54.921875 0 L 40.078125 -20.875 C 38.410156 -20.6875 36.679688 -20.59375 34.890625 -20.59375 L 17.4375 -20.59375 L 17.4375 0 L 10.578125 0 L 10.578125 -64.953125 L 34.890625 -64.953125 C 43.171875 -64.953125 49.660156 -62.972656 54.359375 -59.015625 C 59.066406 -55.054688 61.421875 -49.609375 61.421875 -42.671875 C 61.421875 -37.609375 60.132812 -33.328125 57.5625 -29.828125 C 55 -26.335938 51.335938 -23.816406 46.578125 -22.265625 L 62.4375 0 Z M 34.703125 -26.4375 C 41.128906 -26.4375 46.046875 -27.859375 49.453125 -30.703125 C 52.859375 -33.554688 54.5625 -37.546875 54.5625 -42.671875 C 54.5625 -47.929688 52.859375 -51.96875 49.453125 -54.78125 C 46.046875 -57.601562 41.128906 -59.015625 34.703125 -59.015625 L 17.4375 -59.015625 L 17.4375 -26.4375 Z M 34.703125 -26.4375 "/></g></g></g><g fill="#000000" fill-opacity="1"><g transform="translate(987.364067, 87.61542)"><g><path d="M 38.96875 0.5625 C 32.53125 0.5625 26.695312 -0.875 21.46875 -3.75 C 16.25 -6.632812 12.171875 -10.582031 9.234375 -15.59375 C 6.296875 -20.601562 4.828125 -26.226562 4.828125 -32.46875 C 4.828125 -38.71875 6.296875 -44.347656 9.234375 -49.359375 C 12.171875 -54.367188 16.25 -58.3125 21.46875 -61.1875 C 26.695312 -64.0625 32.53125 -65.5 38.96875 -65.5 C 45.40625 -65.5 51.203125 -64.078125 56.359375 -61.234375 C 61.523438 -58.390625 65.59375 -54.445312 68.5625 -49.40625 C 71.53125 -44.363281 73.015625 -38.71875 73.015625 -32.46875 C 73.015625 -26.226562 71.53125 -20.585938 68.5625 -15.546875 C 65.59375 -10.503906 61.523438 -6.554688 56.359375 -3.703125 C 51.203125 -0.859375 45.40625 0.5625 38.96875 0.5625 Z M 38.96875 -5.5625 C 44.101562 -5.5625 48.742188 -6.722656 52.890625 -9.046875 C 57.035156 -11.367188 60.28125 -14.582031 62.625 -18.6875 C 64.976562 -22.800781 66.15625 -27.394531 66.15625 -32.46875 C 66.15625 -37.539062 64.976562 -42.132812 62.625 -46.25 C 60.28125 -50.363281 57.035156 -53.578125 52.890625 -55.890625 C 48.742188 -58.210938 44.101562 -59.375 38.96875 -59.375 C 33.832031 -59.375 29.175781 -58.210938 25 -55.890625 C 20.820312 -53.578125 17.539062 -50.363281 15.15625 -46.25 C 12.78125 -42.132812 11.59375 -37.539062 11.59375 -32.46875 C 11.59375 -27.394531 12.78125 -22.800781 15.15625 -18.6875 C 17.539062 -14.582031 20.820312 -11.367188 25 -9.046875 C 29.175781 -6.722656 33.832031 -5.5625 38.96875 -5.5625 Z M 38.96875 -5.5625 "/></g></g></g><g fill="#000000" fill-opacity="1"><g transform="translate(1079.122819, 87.61542)"><g><path d="M 36.734375 0.5625 C 28.328125 0.5625 21.769531 -1.847656 17.0625 -6.671875 C 12.363281 -11.503906 10.015625 -18.523438 10.015625 -27.734375 L 10.015625 -64.953125 L 16.890625 -64.953125 L 16.890625 -28.015625 C 16.890625 -20.472656 18.585938 -14.84375 21.984375 -11.125 C 25.390625 -7.414062 30.304688 -5.5625 36.734375 -5.5625 C 43.234375 -5.5625 48.179688 -7.414062 51.578125 -11.125 C 54.984375 -14.84375 56.6875 -20.472656 56.6875 -28.015625 L 56.6875 -64.953125 L 63.375 -64.953125 L 63.375 -27.734375 C 63.375 -18.523438 61.035156 -11.503906 56.359375 -6.671875 C 51.691406 -1.847656 45.148438 0.5625 36.734375 0.5625 Z M 36.734375 0.5625 "/></g></g></g><g fill="#000000" fill-opacity="1"><g transform="translate(1166.521367, 87.61542)"><g><path d="M 34.890625 -64.953125 C 43.171875 -64.953125 49.660156 -62.972656 54.359375 -59.015625 C 59.066406 -55.054688 61.421875 -49.609375 61.421875 -42.671875 C 61.421875 -35.742188 59.066406 -30.316406 54.359375 -26.390625 C 49.660156 -22.460938 43.171875 -20.5 34.890625 -20.5 L 17.4375 -20.5 L 17.4375 0 L 10.578125 0 L 10.578125 -64.953125 Z M 34.703125 -26.53125 C 41.128906 -26.53125 46.046875 -27.9375 49.453125 -30.75 C 52.859375 -33.570312 54.5625 -37.546875 54.5625 -42.671875 C 54.5625 -47.929688 52.859375 -51.96875 49.453125 -54.78125 C 46.046875 -57.601562 41.128906 -59.015625 34.703125 -59.015625 L 17.4375 -59.015625 L 17.4375 -26.53125 Z M 34.703125 -26.53125 "/></g></g></g></g></g></svg>